<?xml version="1.0" encoding="UTF-8"?>
<svg xmlns="http://www.w3.org/2000/svg" xmlns:xlink="http://www.w3.org/1999/xlink" width="319pt" height="293pt" viewBox="0 0 319 293">
<defs>
<g>
<g id="glyph-0-0">
<path d="M 1.5625 -5.1875 L 1.5625 -3 L 2.46875 -3 C 2.832031 -3 3.117188 -3.09375 3.328125 -3.28125 C 3.535156 -3.476562 3.640625 -3.75 3.640625 -4.09375 C 3.640625 -4.4375 3.535156 -4.703125 3.328125 -4.890625 C 3.128906 -5.085938 2.84375 -5.1875 2.46875 -5.1875 Z M 0.765625 -5.828125 L 2.46875 -5.828125 C 3.125 -5.828125 3.617188 -5.679688 3.953125 -5.390625 C 4.285156 -5.097656 4.453125 -4.664062 4.453125 -4.09375 C 4.453125 -3.519531 4.285156 -3.082031 3.953125 -2.78125 C 3.617188 -2.488281 3.125 -2.34375 2.46875 -2.34375 L 1.5625 -2.34375 L 1.5625 0 L 0.765625 0 Z M 0.765625 -5.828125 "/>
</g>
<g id="glyph-0-1">
<path d="M 4.109375 -2.71875 L 4.109375 0 L 3.390625 0 L 3.390625 -2.71875 C 3.390625 -3.101562 3.316406 -3.390625 3.171875 -3.578125 C 3.035156 -3.765625 2.820312 -3.859375 2.53125 -3.859375 C 2.195312 -3.859375 1.9375 -3.738281 1.75 -3.5 C 1.570312 -3.257812 1.484375 -2.914062 1.484375 -2.46875 L 1.484375 0 L 0.765625 0 L 0.765625 -6.078125 L 1.484375 -6.078125 L 1.484375 -3.71875 C 1.609375 -3.96875 1.78125 -4.15625 2 -4.28125 C 2.21875 -4.414062 2.476562 -4.484375 2.78125 -4.484375 C 3.226562 -4.484375 3.5625 -4.335938 3.78125 -4.046875 C 4 -3.753906 4.109375 -3.3125 4.109375 -2.71875 Z M 4.109375 -2.71875 "/>
</g>
<g id="glyph-0-2">
<path d="M 3.359375 -1.40625 C 3.234375 -1.101562 3.078125 -0.703125 2.890625 -0.203125 C 2.640625 0.480469 2.46875 0.90625 2.375 1.0625 C 2.257812 1.257812 2.109375 1.410156 1.921875 1.515625 C 1.742188 1.617188 1.535156 1.671875 1.296875 1.671875 L 0.71875 1.671875 L 0.71875 1.0625 L 1.140625 1.0625 C 1.359375 1.0625 1.523438 1 1.640625 0.875 C 1.765625 0.757812 1.914062 0.441406 2.09375 -0.078125 L 0.40625 -4.375 L 1.171875 -4.375 L 2.46875 -0.953125 L 3.75 -4.375 L 4.5 -4.375 Z M 3.359375 -1.40625 "/>
</g>
<g id="glyph-0-3">
<path d="M 2.8125 -1.578125 C 2.8125 -1.253906 2.867188 -1.007812 2.984375 -0.84375 C 3.109375 -0.6875 3.285156 -0.609375 3.515625 -0.609375 L 4.359375 -0.609375 L 4.359375 0 L 3.4375 0 C 3.007812 0 2.675781 -0.132812 2.4375 -0.40625 C 2.207031 -0.6875 2.09375 -1.078125 2.09375 -1.578125 L 2.09375 -5.546875 L 0.9375 -5.546875 L 0.9375 -6.109375 L 2.8125 -6.109375 Z M 2.8125 -1.578125 "/>
</g>
<g id="glyph-0-4">
<path d="M 2.40625 -3.875 C 2.039062 -3.875 1.765625 -3.726562 1.578125 -3.4375 C 1.390625 -3.15625 1.296875 -2.738281 1.296875 -2.1875 C 1.296875 -1.632812 1.390625 -1.210938 1.578125 -0.921875 C 1.765625 -0.640625 2.039062 -0.5 2.40625 -0.5 C 2.769531 -0.5 3.046875 -0.640625 3.234375 -0.921875 C 3.421875 -1.210938 3.515625 -1.632812 3.515625 -2.1875 C 3.515625 -2.738281 3.421875 -3.15625 3.234375 -3.4375 C 3.046875 -3.726562 2.769531 -3.875 2.40625 -3.875 Z M 2.40625 -4.484375 C 3.007812 -4.484375 3.472656 -4.285156 3.796875 -3.890625 C 4.117188 -3.492188 4.28125 -2.925781 4.28125 -2.1875 C 4.28125 -1.4375 4.117188 -0.863281 3.796875 -0.46875 C 3.484375 -0.0820312 3.019531 0.109375 2.40625 0.109375 C 1.800781 0.109375 1.335938 -0.0820312 1.015625 -0.46875 C 0.691406 -0.863281 0.53125 -1.4375 0.53125 -2.1875 C 0.53125 -2.925781 0.691406 -3.492188 1.015625 -3.890625 C 1.335938 -4.285156 1.800781 -4.484375 2.40625 -4.484375 Z M 2.40625 -4.484375 "/>
</g>
<g id="glyph-0-5">
<path d="M 3.359375 -2.21875 C 3.359375 -2.757812 3.269531 -3.171875 3.09375 -3.453125 C 2.914062 -3.734375 2.660156 -3.875 2.328125 -3.875 C 1.972656 -3.875 1.703125 -3.734375 1.515625 -3.453125 C 1.328125 -3.171875 1.234375 -2.757812 1.234375 -2.21875 C 1.234375 -1.6875 1.328125 -1.273438 1.515625 -0.984375 C 1.703125 -0.703125 1.972656 -0.5625 2.328125 -0.5625 C 2.660156 -0.5625 2.914062 -0.703125 3.09375 -0.984375 C 3.269531 -1.273438 3.359375 -1.6875 3.359375 -2.21875 Z M 4.078125 -0.28125 C 4.078125 0.371094 3.921875 0.867188 3.609375 1.203125 C 3.296875 1.546875 2.835938 1.71875 2.234375 1.71875 C 2.035156 1.71875 1.828125 1.695312 1.609375 1.65625 C 1.398438 1.625 1.1875 1.570312 0.96875 1.5 L 0.96875 0.796875 C 1.226562 0.910156 1.460938 0.992188 1.671875 1.046875 C 1.878906 1.109375 2.066406 1.140625 2.234375 1.140625 C 2.628906 1.140625 2.914062 1.035156 3.09375 0.828125 C 3.269531 0.617188 3.359375 0.285156 3.359375 -0.171875 L 3.359375 -0.703125 C 3.242188 -0.453125 3.085938 -0.265625 2.890625 -0.140625 C 2.691406 -0.0234375 2.445312 0.03125 2.15625 0.03125 C 1.644531 0.03125 1.238281 -0.171875 0.9375 -0.578125 C 0.632812 -0.992188 0.484375 -1.539062 0.484375 -2.21875 C 0.484375 -2.90625 0.632812 -3.453125 0.9375 -3.859375 C 1.238281 -4.273438 1.644531 -4.484375 2.15625 -4.484375 C 2.4375 -4.484375 2.675781 -4.425781 2.875 -4.3125 C 3.070312 -4.195312 3.234375 -4.023438 3.359375 -3.796875 L 3.359375 -4.359375 L 4.078125 -4.359375 Z M 4.078125 -0.28125 "/>
</g>
<g id="glyph-0-6">
<path d="M 4.375 -2.546875 L 4.375 -2.203125 L 1.265625 -2.203125 L 1.265625 -2.171875 C 1.242188 -1.578125 1.359375 -1.148438 1.609375 -0.890625 C 1.859375 -0.628906 2.207031 -0.5 2.65625 -0.5 C 2.882812 -0.5 3.125 -0.535156 3.375 -0.609375 C 3.625 -0.679688 3.890625 -0.789062 4.171875 -0.9375 L 4.171875 -0.21875 C 3.898438 -0.113281 3.632812 -0.0351562 3.375 0.015625 C 3.125 0.078125 2.882812 0.109375 2.65625 0.109375 C 1.96875 0.109375 1.429688 -0.09375 1.046875 -0.5 C 0.671875 -0.90625 0.484375 -1.46875 0.484375 -2.1875 C 0.484375 -2.882812 0.671875 -3.441406 1.046875 -3.859375 C 1.421875 -4.273438 1.921875 -4.484375 2.546875 -4.484375 C 3.097656 -4.484375 3.535156 -4.289062 3.859375 -3.90625 C 4.179688 -3.53125 4.351562 -3.078125 4.375 -2.546875 Z M 3.65625 -2.765625 C 3.625 -3.066406 3.515625 -3.328125 3.328125 -3.546875 C 3.140625 -3.765625 2.867188 -3.875 2.515625 -3.875 C 2.171875 -3.875 1.882812 -3.757812 1.65625 -3.53125 C 1.4375 -3.300781 1.316406 -3.039062 1.296875 -2.75 Z M 3.65625 -2.765625 "/>
</g>
<g id="glyph-0-7">
<path d="M 4.109375 -2.71875 L 4.109375 0 L 3.390625 0 L 3.390625 -2.71875 C 3.390625 -3.101562 3.316406 -3.390625 3.171875 -3.578125 C 3.035156 -3.765625 2.820312 -3.859375 2.53125 -3.859375 C 2.195312 -3.859375 1.9375 -3.738281 1.75 -3.5 C 1.570312 -3.257812 1.484375 -2.914062 1.484375 -2.46875 L 1.484375 0 L 0.765625 0 L 0.765625 -4.375 L 1.484375 -4.375 L 1.484375 -3.71875 C 1.609375 -3.96875 1.78125 -4.15625 2 -4.28125 C 2.21875 -4.414062 2.476562 -4.484375 2.78125 -4.484375 C 3.226562 -4.484375 3.5625 -4.335938 3.78125 -4.046875 C 4 -3.753906 4.109375 -3.3125 4.109375 -2.71875 Z M 4.109375 -2.71875 "/>
</g>
<g id="glyph-0-8">
<path d="M 2.203125 -6.46875 L 3.859375 -6.46875 L 3.859375 -5.90625 L 2.921875 -5.90625 L 2.921875 0.109375 L 3.859375 0.109375 L 3.859375 0.671875 L 2.203125 0.671875 Z M 2.203125 -6.46875 "/>
</g>
<g id="glyph-0-9">
<path d="M 2.96875 -2.75 C 3.175781 -2.695312 3.347656 -2.597656 3.484375 -2.453125 C 3.628906 -2.316406 3.8125 -2.03125 4.03125 -1.59375 L 4.8125 0 L 3.96875 0 L 3.28125 -1.46875 C 3.070312 -1.894531 2.890625 -2.164062 2.734375 -2.28125 C 2.578125 -2.40625 2.367188 -2.46875 2.109375 -2.46875 L 1.359375 -2.46875 L 1.359375 0 L 0.5625 0 L 0.5625 -5.828125 L 2.1875 -5.828125 C 2.820312 -5.828125 3.3125 -5.679688 3.65625 -5.390625 C 4 -5.109375 4.171875 -4.691406 4.171875 -4.140625 C 4.171875 -3.753906 4.066406 -3.441406 3.859375 -3.203125 C 3.648438 -2.960938 3.351562 -2.8125 2.96875 -2.75 Z M 1.359375 -5.1875 L 1.359375 -3.109375 L 2.21875 -3.109375 C 2.59375 -3.109375 2.875 -3.191406 3.0625 -3.359375 C 3.25 -3.535156 3.34375 -3.796875 3.34375 -4.140625 C 3.34375 -4.484375 3.242188 -4.742188 3.046875 -4.921875 C 2.847656 -5.097656 2.5625 -5.1875 2.1875 -5.1875 Z M 1.359375 -5.1875 "/>
</g>
<g id="glyph-0-10">
<path d="M 2.40625 -5.625 L 2.40625 -4.375 L 4.03125 -4.375 L 4.03125 -3.8125 L 2.40625 -3.8125 L 2.40625 -1.4375 C 2.40625 -1.113281 2.460938 -0.890625 2.578125 -0.765625 C 2.703125 -0.640625 2.914062 -0.578125 3.21875 -0.578125 L 4.03125 -0.578125 L 4.03125 0 L 3.15625 0 C 2.613281 0 2.234375 -0.109375 2.015625 -0.328125 C 1.796875 -0.546875 1.6875 -0.914062 1.6875 -1.4375 L 1.6875 -3.8125 L 0.515625 -3.8125 L 0.515625 -4.375 L 1.6875 -4.375 L 1.6875 -5.625 Z M 2.40625 -5.625 "/>
</g>
<g id="glyph-0-11">
<path d="M 3.359375 -3.8125 L 3.359375 -6.078125 L 4.078125 -6.078125 L 4.078125 0 L 3.359375 0 L 3.359375 -0.546875 C 3.234375 -0.335938 3.070312 -0.175781 2.875 -0.0625 C 2.675781 0.0507812 2.445312 0.109375 2.1875 0.109375 C 1.65625 0.109375 1.238281 -0.09375 0.9375 -0.5 C 0.632812 -0.914062 0.484375 -1.484375 0.484375 -2.203125 C 0.484375 -2.910156 0.632812 -3.46875 0.9375 -3.875 C 1.238281 -4.28125 1.65625 -4.484375 2.1875 -4.484375 C 2.445312 -4.484375 2.675781 -4.425781 2.875 -4.3125 C 3.082031 -4.195312 3.242188 -4.03125 3.359375 -3.8125 Z M 1.234375 -2.1875 C 1.234375 -1.625 1.320312 -1.203125 1.5 -0.921875 C 1.675781 -0.640625 1.941406 -0.5 2.296875 -0.5 C 2.640625 -0.5 2.898438 -0.640625 3.078125 -0.921875 C 3.265625 -1.210938 3.359375 -1.632812 3.359375 -2.1875 C 3.359375 -2.738281 3.265625 -3.15625 3.078125 -3.4375 C 2.898438 -3.726562 2.640625 -3.875 2.296875 -3.875 C 1.941406 -3.875 1.675781 -3.726562 1.5 -3.4375 C 1.320312 -3.15625 1.234375 -2.738281 1.234375 -2.1875 Z M 1.234375 -2.1875 "/>
</g>
<g id="glyph-0-12">
<path d="M 2.8125 -6.46875 L 2.8125 0.671875 L 1.15625 0.671875 L 1.15625 0.109375 L 2.09375 0.109375 L 2.09375 -5.90625 L 1.15625 -5.90625 L 1.15625 -6.46875 Z M 2.8125 -6.46875 "/>
</g>
<g id="glyph-0-13">
<path d="M 3.53125 -2.90625 C 3.53125 -3.769531 3.441406 -4.382812 3.265625 -4.75 C 3.097656 -5.113281 2.8125 -5.296875 2.40625 -5.296875 C 2.007812 -5.296875 1.722656 -5.113281 1.546875 -4.75 C 1.367188 -4.382812 1.28125 -3.769531 1.28125 -2.90625 C 1.28125 -2.050781 1.367188 -1.441406 1.546875 -1.078125 C 1.722656 -0.710938 2.007812 -0.53125 2.40625 -0.53125 C 2.8125 -0.53125 3.097656 -0.710938 3.265625 -1.078125 C 3.441406 -1.441406 3.53125 -2.050781 3.53125 -2.90625 Z M 4.359375 -2.90625 C 4.359375 -1.894531 4.195312 -1.140625 3.875 -0.640625 C 3.550781 -0.140625 3.0625 0.109375 2.40625 0.109375 C 1.75 0.109375 1.257812 -0.132812 0.9375 -0.625 C 0.613281 -1.125 0.453125 -1.882812 0.453125 -2.90625 C 0.453125 -3.925781 0.613281 -4.6875 0.9375 -5.1875 C 1.257812 -5.6875 1.75 -5.9375 2.40625 -5.9375 C 3.0625 -5.9375 3.550781 -5.6875 3.875 -5.1875 C 4.195312 -4.6875 4.359375 -3.925781 4.359375 -2.90625 Z M 4.359375 -2.90625 "/>
</g>
<g id="glyph-0-14">
</g>
<g id="glyph-0-15">
<path d="M 4.515625 -3.46875 C 4.359375 -3.59375 4.203125 -3.679688 4.046875 -3.734375 C 3.890625 -3.785156 3.710938 -3.8125 3.515625 -3.8125 C 3.066406 -3.8125 2.722656 -3.671875 2.484375 -3.390625 C 2.253906 -3.109375 2.140625 -2.703125 2.140625 -2.171875 L 2.140625 0 L 1.421875 0 L 1.421875 -4.375 L 2.140625 -4.375 L 2.140625 -3.515625 C 2.253906 -3.828125 2.4375 -4.066406 2.6875 -4.234375 C 2.9375 -4.398438 3.234375 -4.484375 3.578125 -4.484375 C 3.753906 -4.484375 3.914062 -4.457031 4.0625 -4.40625 C 4.21875 -4.363281 4.367188 -4.296875 4.515625 -4.203125 Z M 4.515625 -3.46875 "/>
</g>
<g id="glyph-0-16">
<path d="M 1.296875 -2.171875 C 1.296875 -1.609375 1.382812 -1.1875 1.5625 -0.90625 C 1.738281 -0.625 2 -0.484375 2.34375 -0.484375 C 2.6875 -0.484375 2.945312 -0.625 3.125 -0.90625 C 3.3125 -1.195312 3.40625 -1.617188 3.40625 -2.171875 C 3.40625 -2.722656 3.3125 -3.140625 3.125 -3.421875 C 2.945312 -3.710938 2.6875 -3.859375 2.34375 -3.859375 C 2 -3.859375 1.738281 -3.710938 1.5625 -3.421875 C 1.382812 -3.140625 1.296875 -2.722656 1.296875 -2.171875 Z M 3.40625 -0.546875 C 3.28125 -0.328125 3.117188 -0.160156 2.921875 -0.046875 C 2.722656 0.0664062 2.492188 0.125 2.234375 0.125 C 1.710938 0.125 1.296875 -0.078125 0.984375 -0.484375 C 0.679688 -0.890625 0.53125 -1.445312 0.53125 -2.15625 C 0.53125 -2.875 0.679688 -3.4375 0.984375 -3.84375 C 1.285156 -4.257812 1.703125 -4.46875 2.234375 -4.46875 C 2.492188 -4.46875 2.722656 -4.410156 2.921875 -4.296875 C 3.117188 -4.179688 3.28125 -4.015625 3.40625 -3.796875 L 3.40625 -4.359375 L 4.125 -4.359375 L 4.125 1.6875 L 3.40625 1.6875 Z M 3.40625 -0.546875 "/>
</g>
<g id="glyph-0-17">
<path d="M 0.765625 -1.65625 L 0.765625 -4.375 L 1.484375 -4.375 L 1.484375 -1.65625 C 1.484375 -1.257812 1.550781 -0.96875 1.6875 -0.78125 C 1.832031 -0.601562 2.050781 -0.515625 2.34375 -0.515625 C 2.675781 -0.515625 2.929688 -0.632812 3.109375 -0.875 C 3.296875 -1.113281 3.390625 -1.453125 3.390625 -1.890625 L 3.390625 -4.375 L 4.109375 -4.375 L 4.109375 0 L 3.390625 0 L 3.390625 -0.65625 C 3.253906 -0.40625 3.078125 -0.210938 2.859375 -0.078125 C 2.640625 0.0429688 2.382812 0.109375 2.09375 0.109375 C 1.644531 0.109375 1.3125 -0.0351562 1.09375 -0.328125 C 0.875 -0.617188 0.765625 -1.0625 0.765625 -1.65625 Z M 0.765625 -1.65625 "/>
</g>
<g id="glyph-0-18">
<path d="M 1.234375 -4.359375 L 3.078125 -4.359375 L 3.078125 -0.5625 L 4.5 -0.5625 L 4.5 0 L 0.9375 0 L 0.9375 -0.5625 L 2.359375 -0.5625 L 2.359375 -3.796875 L 1.234375 -3.796875 Z M 2.359375 -6.0625 L 3.078125 -6.0625 L 3.078125 -5.15625 L 2.359375 -5.15625 Z M 2.359375 -6.0625 "/>
</g>
<g id="glyph-0-19">
<path d="M 4.15625 -6.078125 L 4.15625 -5.484375 L 3.34375 -5.484375 C 3.082031 -5.484375 2.898438 -5.429688 2.796875 -5.328125 C 2.703125 -5.222656 2.65625 -5.035156 2.65625 -4.765625 L 2.65625 -4.375 L 4.15625 -4.375 L 4.15625 -3.8125 L 2.65625 -3.8125 L 2.65625 0 L 1.9375 0 L 1.9375 -3.8125 L 0.765625 -3.8125 L 0.765625 -4.375 L 1.9375 -4.375 L 1.9375 -4.6875 C 1.9375 -5.164062 2.046875 -5.515625 2.265625 -5.734375 C 2.484375 -5.960938 2.828125 -6.078125 3.296875 -6.078125 Z M 4.15625 -6.078125 "/>
</g>
<g id="glyph-0-20">
<path d="M 4.140625 -0.21875 C 3.953125 -0.113281 3.753906 -0.0351562 3.546875 0.015625 C 3.347656 0.078125 3.140625 0.109375 2.921875 0.109375 C 2.242188 0.109375 1.710938 -0.09375 1.328125 -0.5 C 0.953125 -0.90625 0.765625 -1.46875 0.765625 -2.1875 C 0.765625 -2.90625 0.953125 -3.46875 1.328125 -3.875 C 1.710938 -4.28125 2.242188 -4.484375 2.921875 -4.484375 C 3.128906 -4.484375 3.332031 -4.453125 3.53125 -4.390625 C 3.738281 -4.335938 3.941406 -4.253906 4.140625 -4.140625 L 4.140625 -3.390625 C 3.953125 -3.554688 3.757812 -3.675781 3.5625 -3.75 C 3.375 -3.832031 3.160156 -3.875 2.921875 -3.875 C 2.472656 -3.875 2.125 -3.726562 1.875 -3.4375 C 1.632812 -3.144531 1.515625 -2.726562 1.515625 -2.1875 C 1.515625 -1.644531 1.632812 -1.226562 1.875 -0.9375 C 2.125 -0.644531 2.472656 -0.5 2.921875 -0.5 C 3.171875 -0.5 3.394531 -0.535156 3.59375 -0.609375 C 3.789062 -0.691406 3.972656 -0.8125 4.140625 -0.96875 Z M 4.140625 -0.21875 "/>
</g>
<g id="glyph-0-21">
<path d="M 2.640625 -3.9375 C 2.734375 -4.125 2.847656 -4.257812 2.984375 -4.34375 C 3.117188 -4.4375 3.28125 -4.484375 3.46875 -4.484375 C 3.820312 -4.484375 4.070312 -4.347656 4.21875 -4.078125 C 4.363281 -3.804688 4.4375 -3.289062 4.4375 -2.53125 L 4.4375 0 L 3.78125 0 L 3.78125 -2.5 C 3.78125 -3.125 3.742188 -3.507812 3.671875 -3.65625 C 3.609375 -3.800781 3.484375 -3.875 3.296875 -3.875 C 3.085938 -3.875 2.941406 -3.796875 2.859375 -3.640625 C 2.785156 -3.484375 2.75 -3.101562 2.75 -2.5 L 2.75 0 L 2.09375 0 L 2.09375 -2.5 C 2.09375 -3.125 2.054688 -3.507812 1.984375 -3.65625 C 1.910156 -3.800781 1.78125 -3.875 1.59375 -3.875 C 1.394531 -3.875 1.257812 -3.796875 1.1875 -3.640625 C 1.113281 -3.484375 1.078125 -3.101562 1.078125 -2.5 L 1.078125 0 L 0.421875 0 L 0.421875 -4.375 L 1.078125 -4.375 L 1.078125 -4 C 1.160156 -4.15625 1.265625 -4.273438 1.390625 -4.359375 C 1.523438 -4.441406 1.675781 -4.484375 1.84375 -4.484375 C 2.039062 -4.484375 2.203125 -4.4375 2.328125 -4.34375 C 2.460938 -4.25 2.566406 -4.113281 2.640625 -3.9375 Z M 2.640625 -3.9375 "/>
</g>
<g id="glyph-0-22">
<path d="M 1.46875 -0.546875 L 1.46875 1.671875 L 0.75 1.671875 L 0.75 -4.375 L 1.46875 -4.375 L 1.46875 -3.8125 C 1.582031 -4.03125 1.738281 -4.195312 1.9375 -4.3125 C 2.144531 -4.425781 2.378906 -4.484375 2.640625 -4.484375 C 3.160156 -4.484375 3.570312 -4.273438 3.875 -3.859375 C 4.175781 -3.453125 4.328125 -2.890625 4.328125 -2.171875 C 4.328125 -1.460938 4.175781 -0.90625 3.875 -0.5 C 3.570312 -0.09375 3.160156 0.109375 2.640625 0.109375 C 2.367188 0.109375 2.132812 0.0507812 1.9375 -0.0625 C 1.738281 -0.175781 1.582031 -0.335938 1.46875 -0.546875 Z M 3.578125 -2.1875 C 3.578125 -2.738281 3.488281 -3.15625 3.3125 -3.4375 C 3.132812 -3.726562 2.875 -3.875 2.53125 -3.875 C 2.175781 -3.875 1.910156 -3.726562 1.734375 -3.4375 C 1.554688 -3.15625 1.46875 -2.738281 1.46875 -2.1875 C 1.46875 -1.632812 1.554688 -1.210938 1.734375 -0.921875 C 1.910156 -0.640625 2.175781 -0.5 2.53125 -0.5 C 2.875 -0.5 3.132812 -0.640625 3.3125 -0.921875 C 3.488281 -1.203125 3.578125 -1.625 3.578125 -2.1875 Z M 3.578125 -2.1875 "/>
</g>
<g id="glyph-0-23">
<path d="M 2.75 -2.203125 L 2.5 -2.203125 C 2.082031 -2.203125 1.765625 -2.128906 1.546875 -1.984375 C 1.335938 -1.835938 1.234375 -1.617188 1.234375 -1.328125 C 1.234375 -1.054688 1.3125 -0.847656 1.46875 -0.703125 C 1.632812 -0.554688 1.859375 -0.484375 2.140625 -0.484375 C 2.535156 -0.484375 2.84375 -0.617188 3.0625 -0.890625 C 3.289062 -1.171875 3.410156 -1.554688 3.421875 -2.046875 L 3.421875 -2.203125 Z M 4.140625 -2.5 L 4.140625 0 L 3.421875 0 L 3.421875 -0.65625 C 3.265625 -0.394531 3.066406 -0.203125 2.828125 -0.078125 C 2.597656 0.0429688 2.316406 0.109375 1.984375 0.109375 C 1.535156 0.109375 1.175781 -0.015625 0.90625 -0.265625 C 0.644531 -0.515625 0.515625 -0.851562 0.515625 -1.28125 C 0.515625 -1.757812 0.675781 -2.125 1 -2.375 C 1.332031 -2.632812 1.816406 -2.765625 2.453125 -2.765625 L 3.421875 -2.765625 L 3.421875 -2.875 C 3.410156 -3.226562 3.316406 -3.484375 3.140625 -3.640625 C 2.972656 -3.796875 2.695312 -3.875 2.3125 -3.875 C 2.070312 -3.875 1.828125 -3.835938 1.578125 -3.765625 C 1.328125 -3.691406 1.082031 -3.585938 0.84375 -3.453125 L 0.84375 -4.171875 C 1.101562 -4.273438 1.351562 -4.351562 1.59375 -4.40625 C 1.84375 -4.457031 2.082031 -4.484375 2.3125 -4.484375 C 2.675781 -4.484375 2.984375 -4.425781 3.234375 -4.3125 C 3.492188 -4.207031 3.703125 -4.050781 3.859375 -3.84375 C 3.960938 -3.707031 4.035156 -3.546875 4.078125 -3.359375 C 4.117188 -3.171875 4.140625 -2.882812 4.140625 -2.5 Z M 4.140625 -2.5 "/>
</g>
<g id="glyph-0-24">
<path d="M 0.390625 -4.375 L 1.140625 -4.375 L 2.40625 -0.703125 L 3.6875 -4.375 L 4.421875 -4.375 L 2.875 0 L 1.953125 0 Z M 0.390625 -4.375 "/>
</g>
<g id="glyph-0-25">
<path d="M 3.796875 -4.21875 L 3.796875 -3.515625 C 3.597656 -3.640625 3.394531 -3.726562 3.1875 -3.78125 C 2.976562 -3.84375 2.765625 -3.875 2.546875 -3.875 C 2.222656 -3.875 1.976562 -3.820312 1.8125 -3.71875 C 1.65625 -3.613281 1.578125 -3.453125 1.578125 -3.234375 C 1.578125 -3.046875 1.632812 -2.898438 1.75 -2.796875 C 1.875 -2.703125 2.175781 -2.609375 2.65625 -2.515625 L 2.9375 -2.46875 C 3.289062 -2.394531 3.5625 -2.253906 3.75 -2.046875 C 3.9375 -1.847656 4.03125 -1.585938 4.03125 -1.265625 C 4.03125 -0.835938 3.875 -0.5 3.5625 -0.25 C 3.257812 -0.0078125 2.832031 0.109375 2.28125 0.109375 C 2.0625 0.109375 1.832031 0.0820312 1.59375 0.03125 C 1.363281 -0.0078125 1.109375 -0.0703125 0.828125 -0.15625 L 0.828125 -0.90625 C 1.097656 -0.769531 1.351562 -0.664062 1.59375 -0.59375 C 1.84375 -0.519531 2.078125 -0.484375 2.296875 -0.484375 C 2.617188 -0.484375 2.863281 -0.546875 3.03125 -0.671875 C 3.207031 -0.804688 3.296875 -0.988281 3.296875 -1.21875 C 3.296875 -1.550781 2.976562 -1.785156 2.34375 -1.921875 L 2.3125 -1.921875 L 2.046875 -1.984375 C 1.628906 -2.054688 1.320312 -2.1875 1.125 -2.375 C 0.9375 -2.570312 0.84375 -2.835938 0.84375 -3.171875 C 0.84375 -3.585938 0.984375 -3.910156 1.265625 -4.140625 C 1.554688 -4.367188 1.960938 -4.484375 2.484375 -4.484375 C 2.722656 -4.484375 2.945312 -4.460938 3.15625 -4.421875 C 3.375 -4.378906 3.585938 -4.3125 3.796875 -4.21875 Z M 3.796875 -4.21875 "/>
</g>
<g id="glyph-0-26">
<path d="M 1.515625 -1.578125 L 2.890625 -1.578125 L 2.890625 0 L 1.515625 0 Z M 1.515625 -1.578125 "/>
</g>
<g id="glyph-1-0">
<path d="M 2.390625 -5.09375 L 1.5625 -2.140625 L 3.21875 -2.140625 Z M 1.921875 -5.78125 L 2.859375 -5.78125 L 4.640625 0 L 3.828125 0 L 3.40625 -1.5 L 1.375 -1.5 L 0.953125 0 L 0.140625 0 Z M 1.921875 -5.78125 "/>
</g>
<g id="glyph-1-1">
<path d="M 3.921875 -5.59375 L 3.921875 -4.796875 C 3.679688 -4.941406 3.441406 -5.050781 3.203125 -5.125 C 2.960938 -5.207031 2.722656 -5.25 2.484375 -5.25 C 2.117188 -5.25 1.828125 -5.160156 1.609375 -4.984375 C 1.390625 -4.816406 1.28125 -4.585938 1.28125 -4.296875 C 1.28125 -4.046875 1.347656 -3.851562 1.484375 -3.71875 C 1.628906 -3.582031 1.894531 -3.46875 2.28125 -3.375 L 2.703125 -3.28125 C 3.242188 -3.15625 3.632812 -2.957031 3.875 -2.6875 C 4.125 -2.414062 4.25 -2.046875 4.25 -1.578125 C 4.25 -1.023438 4.078125 -0.601562 3.734375 -0.3125 C 3.398438 -0.03125 2.90625 0.109375 2.25 0.109375 C 1.976562 0.109375 1.707031 0.078125 1.4375 0.015625 C 1.164062 -0.0351562 0.890625 -0.117188 0.609375 -0.234375 L 0.609375 -1.0625 C 0.910156 -0.875 1.191406 -0.734375 1.453125 -0.640625 C 1.722656 -0.554688 1.988281 -0.515625 2.25 -0.515625 C 2.644531 -0.515625 2.953125 -0.601562 3.171875 -0.78125 C 3.390625 -0.957031 3.5 -1.207031 3.5 -1.53125 C 3.5 -1.820312 3.421875 -2.039062 3.265625 -2.1875 C 3.117188 -2.34375 2.859375 -2.460938 2.484375 -2.546875 L 2.078125 -2.640625 C 1.535156 -2.765625 1.140625 -2.945312 0.890625 -3.1875 C 0.648438 -3.4375 0.53125 -3.769531 0.53125 -4.1875 C 0.53125 -4.695312 0.703125 -5.109375 1.046875 -5.421875 C 1.398438 -5.734375 1.867188 -5.890625 2.453125 -5.890625 C 2.671875 -5.890625 2.898438 -5.863281 3.140625 -5.8125 C 3.390625 -5.757812 3.648438 -5.6875 3.921875 -5.59375 Z M 3.921875 -5.59375 "/>
</g>
<g id="glyph-1-2">
<path d="M 2.390625 -0.65625 L 3.75 -5.78125 L 4.5625 -5.78125 L 2.859375 0 L 1.921875 0 L 0.21875 -5.78125 L 1.03125 -5.78125 Z M 2.390625 -0.65625 "/>
</g>
<g id="glyph-1-3">
<path d="M 1.453125 -0.65625 L 4.109375 -0.65625 L 4.109375 0 L 0.59375 0 L 0.59375 -0.65625 C 1.070312 -1.164062 1.492188 -1.613281 1.859375 -2 C 2.222656 -2.394531 2.472656 -2.671875 2.609375 -2.828125 C 2.859375 -3.148438 3.03125 -3.40625 3.125 -3.59375 C 3.21875 -3.789062 3.265625 -3.992188 3.265625 -4.203125 C 3.265625 -4.523438 3.164062 -4.773438 2.96875 -4.953125 C 2.78125 -5.140625 2.523438 -5.234375 2.203125 -5.234375 C 1.960938 -5.234375 1.710938 -5.1875 1.453125 -5.09375 C 1.191406 -5.007812 0.921875 -4.882812 0.640625 -4.71875 L 0.640625 -5.5 C 0.898438 -5.632812 1.160156 -5.734375 1.421875 -5.796875 C 1.679688 -5.859375 1.9375 -5.890625 2.1875 -5.890625 C 2.75 -5.890625 3.203125 -5.738281 3.546875 -5.4375 C 3.890625 -5.132812 4.0625 -4.738281 4.0625 -4.25 C 4.0625 -4.007812 4.003906 -3.765625 3.890625 -3.515625 C 3.773438 -3.265625 3.585938 -2.988281 3.328125 -2.6875 C 3.179688 -2.519531 2.972656 -2.285156 2.703125 -1.984375 C 2.429688 -1.691406 2.015625 -1.25 1.453125 -0.65625 Z M 1.453125 -0.65625 "/>
</g>
<g id="glyph-1-4">
<path d="M 1.046875 -0.65625 L 2.265625 -0.65625 L 2.265625 -5.03125 L 0.8125 -4.328125 L 0.8125 -5.078125 L 2.25 -5.765625 L 3.03125 -5.765625 L 3.03125 -0.65625 L 4.234375 -0.65625 L 4.234375 0 L 1.046875 0 Z M 1.046875 -0.65625 "/>
</g>
<g id="glyph-1-5">
<path d="M 3 -3.09375 C 3.382812 -3 3.675781 -2.820312 3.875 -2.5625 C 4.082031 -2.300781 4.1875 -1.976562 4.1875 -1.59375 C 4.1875 -1.0625 4.003906 -0.644531 3.640625 -0.34375 C 3.285156 -0.0390625 2.789062 0.109375 2.15625 0.109375 C 1.894531 0.109375 1.625 0.0820312 1.34375 0.03125 C 1.070312 -0.0078125 0.800781 -0.078125 0.53125 -0.171875 L 0.53125 -0.953125 C 0.789062 -0.816406 1.046875 -0.710938 1.296875 -0.640625 C 1.554688 -0.578125 1.816406 -0.546875 2.078125 -0.546875 C 2.503906 -0.546875 2.832031 -0.640625 3.0625 -0.828125 C 3.289062 -1.023438 3.40625 -1.304688 3.40625 -1.671875 C 3.40625 -2.003906 3.289062 -2.269531 3.0625 -2.46875 C 2.832031 -2.664062 2.519531 -2.765625 2.125 -2.765625 L 1.53125 -2.765625 L 1.53125 -3.421875 L 2.125 -3.421875 C 2.488281 -3.421875 2.769531 -3.5 2.96875 -3.65625 C 3.164062 -3.8125 3.265625 -4.03125 3.265625 -4.3125 C 3.265625 -4.601562 3.171875 -4.828125 2.984375 -4.984375 C 2.796875 -5.148438 2.53125 -5.234375 2.1875 -5.234375 C 1.957031 -5.234375 1.71875 -5.207031 1.46875 -5.15625 C 1.226562 -5.101562 0.972656 -5.023438 0.703125 -4.921875 L 0.703125 -5.640625 C 1.015625 -5.722656 1.289062 -5.785156 1.53125 -5.828125 C 1.78125 -5.867188 2 -5.890625 2.1875 -5.890625 C 2.75 -5.890625 3.195312 -5.75 3.53125 -5.46875 C 3.875 -5.1875 4.046875 -4.8125 4.046875 -4.34375 C 4.046875 -4.019531 3.957031 -3.753906 3.78125 -3.546875 C 3.601562 -3.335938 3.34375 -3.1875 3 -3.09375 Z M 3 -3.09375 "/>
</g>
<g id="glyph-1-6">
<path d="M 2.390625 -2.75 C 2.035156 -2.75 1.765625 -2.648438 1.578125 -2.453125 C 1.390625 -2.253906 1.296875 -1.976562 1.296875 -1.625 C 1.296875 -1.269531 1.390625 -0.992188 1.578125 -0.796875 C 1.773438 -0.597656 2.046875 -0.5 2.390625 -0.5 C 2.742188 -0.5 3.015625 -0.59375 3.203125 -0.78125 C 3.390625 -0.976562 3.484375 -1.257812 3.484375 -1.625 C 3.484375 -1.976562 3.382812 -2.253906 3.1875 -2.453125 C 3 -2.648438 2.734375 -2.75 2.390625 -2.75 Z M 1.703125 -3.078125 C 1.367188 -3.160156 1.109375 -3.316406 0.921875 -3.546875 C 0.734375 -3.785156 0.640625 -4.066406 0.640625 -4.390625 C 0.640625 -4.847656 0.796875 -5.210938 1.109375 -5.484375 C 1.421875 -5.753906 1.847656 -5.890625 2.390625 -5.890625 C 2.929688 -5.890625 3.359375 -5.753906 3.671875 -5.484375 C 3.984375 -5.210938 4.140625 -4.847656 4.140625 -4.390625 C 4.140625 -4.066406 4.046875 -3.785156 3.859375 -3.546875 C 3.671875 -3.316406 3.410156 -3.160156 3.078125 -3.078125 C 3.460938 -2.992188 3.753906 -2.820312 3.953125 -2.5625 C 4.160156 -2.300781 4.265625 -1.960938 4.265625 -1.546875 C 4.265625 -1.023438 4.097656 -0.617188 3.765625 -0.328125 C 3.429688 -0.0351562 2.972656 0.109375 2.390625 0.109375 C 1.796875 0.109375 1.332031 -0.0351562 1 -0.328125 C 0.664062 -0.617188 0.5 -1.023438 0.5 -1.546875 C 0.5 -1.960938 0.601562 -2.300781 0.8125 -2.5625 C 1.019531 -2.820312 1.316406 -2.992188 1.703125 -3.078125 Z M 1.421875 -4.3125 C 1.421875 -4.007812 1.503906 -3.773438 1.671875 -3.609375 C 1.835938 -3.441406 2.078125 -3.359375 2.390625 -3.359375 C 2.703125 -3.359375 2.941406 -3.441406 3.109375 -3.609375 C 3.273438 -3.773438 3.359375 -4.007812 3.359375 -4.3125 C 3.359375 -4.632812 3.273438 -4.875 3.109375 -5.03125 C 2.941406 -5.195312 2.703125 -5.28125 2.390625 -5.28125 C 2.078125 -5.28125 1.835938 -5.195312 1.671875 -5.03125 C 1.503906 -4.863281 1.421875 -4.625 1.421875 -4.3125 Z M 1.421875 -4.3125 "/>
</g>
<g id="glyph-1-7">
<path d="M 3.84375 -5.65625 L 3.84375 -4.9375 C 3.675781 -5.03125 3.5 -5.101562 3.3125 -5.15625 C 3.132812 -5.207031 2.945312 -5.234375 2.75 -5.234375 C 2.25 -5.234375 1.867188 -5.046875 1.609375 -4.671875 C 1.359375 -4.296875 1.234375 -3.742188 1.234375 -3.015625 C 1.359375 -3.273438 1.53125 -3.472656 1.75 -3.609375 C 1.96875 -3.753906 2.21875 -3.828125 2.5 -3.828125 C 3.0625 -3.828125 3.492188 -3.65625 3.796875 -3.3125 C 4.109375 -2.96875 4.265625 -2.484375 4.265625 -1.859375 C 4.265625 -1.234375 4.101562 -0.75 3.78125 -0.40625 C 3.46875 -0.0625 3.03125 0.109375 2.46875 0.109375 C 1.789062 0.109375 1.296875 -0.128906 0.984375 -0.609375 C 0.671875 -1.085938 0.515625 -1.847656 0.515625 -2.890625 C 0.515625 -3.867188 0.703125 -4.613281 1.078125 -5.125 C 1.453125 -5.632812 2 -5.890625 2.71875 -5.890625 C 2.90625 -5.890625 3.09375 -5.867188 3.28125 -5.828125 C 3.476562 -5.785156 3.664062 -5.726562 3.84375 -5.65625 Z M 2.453125 -3.21875 C 2.117188 -3.21875 1.851562 -3.09375 1.65625 -2.84375 C 1.46875 -2.601562 1.375 -2.273438 1.375 -1.859375 C 1.375 -1.429688 1.46875 -1.097656 1.65625 -0.859375 C 1.851562 -0.617188 2.117188 -0.5 2.453125 -0.5 C 2.796875 -0.5 3.050781 -0.613281 3.21875 -0.84375 C 3.394531 -1.070312 3.484375 -1.410156 3.484375 -1.859375 C 3.484375 -2.304688 3.394531 -2.644531 3.21875 -2.875 C 3.050781 -3.101562 2.796875 -3.21875 2.453125 -3.21875 Z M 2.453125 -3.21875 "/>
</g>
<g id="glyph-1-8">
<path d="M 2.3125 -2.5625 C 2.644531 -2.5625 2.90625 -2.679688 3.09375 -2.921875 C 3.28125 -3.160156 3.375 -3.492188 3.375 -3.921875 C 3.375 -4.347656 3.28125 -4.679688 3.09375 -4.921875 C 2.90625 -5.160156 2.644531 -5.28125 2.3125 -5.28125 C 1.96875 -5.28125 1.707031 -5.164062 1.53125 -4.9375 C 1.351562 -4.707031 1.265625 -4.367188 1.265625 -3.921875 C 1.265625 -3.472656 1.347656 -3.132812 1.515625 -2.90625 C 1.691406 -2.675781 1.957031 -2.5625 2.3125 -2.5625 Z M 0.921875 -0.125 L 0.921875 -0.84375 C 1.078125 -0.75 1.242188 -0.675781 1.421875 -0.625 C 1.609375 -0.570312 1.800781 -0.546875 2 -0.546875 C 2.5 -0.546875 2.875 -0.734375 3.125 -1.109375 C 3.382812 -1.484375 3.515625 -2.03125 3.515625 -2.75 C 3.390625 -2.5 3.21875 -2.300781 3 -2.15625 C 2.78125 -2.019531 2.53125 -1.953125 2.25 -1.953125 C 1.6875 -1.953125 1.253906 -2.125 0.953125 -2.46875 C 0.648438 -2.8125 0.5 -3.300781 0.5 -3.9375 C 0.5 -4.550781 0.65625 -5.03125 0.96875 -5.375 C 1.28125 -5.71875 1.722656 -5.890625 2.296875 -5.890625 C 2.960938 -5.890625 3.453125 -5.644531 3.765625 -5.15625 C 4.078125 -4.675781 4.234375 -3.921875 4.234375 -2.890625 C 4.234375 -1.910156 4.046875 -1.164062 3.671875 -0.65625 C 3.296875 -0.144531 2.75 0.109375 2.03125 0.109375 C 1.84375 0.109375 1.65625 0.0859375 1.46875 0.046875 C 1.28125 0.015625 1.097656 -0.0390625 0.921875 -0.125 Z M 0.921875 -0.125 "/>
</g>
<g id="glyph-1-9">
<path d="M 2.390625 -5.875 C 3.003906 -5.875 3.46875 -5.617188 3.78125 -5.109375 C 4.101562 -4.609375 4.265625 -3.863281 4.265625 -2.875 C 4.265625 -1.894531 4.101562 -1.148438 3.78125 -0.640625 C 3.46875 -0.140625 3.003906 0.109375 2.390625 0.109375 C 1.773438 0.109375 1.304688 -0.140625 0.984375 -0.640625 C 0.671875 -1.148438 0.515625 -1.894531 0.515625 -2.875 C 0.515625 -3.863281 0.671875 -4.609375 0.984375 -5.109375 C 1.304688 -5.617188 1.773438 -5.875 2.390625 -5.875 Z M 2.390625 -0.5 C 2.753906 -0.5 3.023438 -0.691406 3.203125 -1.078125 C 3.378906 -1.472656 3.46875 -2.070312 3.46875 -2.875 C 3.46875 -3.300781 3.445312 -3.6875 3.40625 -4.03125 L 1.546875 -1.140625 C 1.742188 -0.710938 2.023438 -0.5 2.390625 -0.5 Z M 2.390625 -5.25 C 2.023438 -5.25 1.75 -5.050781 1.5625 -4.65625 C 1.382812 -4.269531 1.296875 -3.675781 1.296875 -2.875 C 1.296875 -2.507812 1.320312 -2.171875 1.375 -1.859375 L 3.1875 -4.734375 C 2.988281 -5.078125 2.722656 -5.25 2.390625 -5.25 Z M 2.390625 -5.25 "/>
</g>
<g id="glyph-1-10">
<path d="M 0.53125 -5.78125 L 4.1875 -5.78125 L 4.1875 -5.453125 L 2.109375 0 L 1.296875 0 L 3.3125 -5.125 L 0.53125 -5.125 Z M 0.53125 -5.78125 "/>
</g>
<g id="glyph-1-11">
<path d="M 0.796875 -5.78125 L 3.734375 -5.78125 L 3.734375 -5.125 L 1.515625 -5.125 L 1.515625 -3.703125 C 1.628906 -3.742188 1.738281 -3.773438 1.84375 -3.796875 C 1.957031 -3.816406 2.070312 -3.828125 2.1875 -3.828125 C 2.789062 -3.828125 3.265625 -3.648438 3.609375 -3.296875 C 3.960938 -2.941406 4.140625 -2.460938 4.140625 -1.859375 C 4.140625 -1.242188 3.953125 -0.757812 3.578125 -0.40625 C 3.210938 -0.0625 2.710938 0.109375 2.078125 0.109375 C 1.773438 0.109375 1.492188 0.0859375 1.234375 0.046875 C 0.984375 0.00390625 0.753906 -0.0546875 0.546875 -0.140625 L 0.546875 -0.9375 C 0.785156 -0.800781 1.023438 -0.703125 1.265625 -0.640625 C 1.503906 -0.578125 1.75 -0.546875 2 -0.546875 C 2.4375 -0.546875 2.769531 -0.660156 3 -0.890625 C 3.238281 -1.117188 3.359375 -1.441406 3.359375 -1.859375 C 3.359375 -2.273438 3.234375 -2.597656 2.984375 -2.828125 C 2.742188 -3.054688 2.410156 -3.171875 1.984375 -3.171875 C 1.773438 -3.171875 1.570312 -3.144531 1.375 -3.09375 C 1.175781 -3.039062 0.984375 -2.96875 0.796875 -2.875 Z M 0.796875 -5.78125 "/>
</g>
<g id="glyph-1-12">
<path d="M 2.84375 -5.078125 L 1.015625 -2.015625 L 2.84375 -2.015625 Z M 2.71875 -5.78125 L 3.625 -5.78125 L 3.625 -2.015625 L 4.40625 -2.015625 L 4.40625 -1.375 L 3.625 -1.375 L 3.625 0 L 2.84375 0 L 2.84375 -1.375 L 0.390625 -1.375 L 0.390625 -2.125 Z M 2.71875 -5.78125 "/>
</g>
<g id="glyph-2-0">
<path d="M 2.140625 -5.25 C 2.691406 -5.25 3.109375 -5.019531 3.390625 -4.5625 C 3.671875 -4.113281 3.8125 -3.453125 3.8125 -2.578125 C 3.8125 -1.691406 3.671875 -1.023438 3.390625 -0.578125 C 3.109375 -0.128906 2.691406 0.09375 2.140625 0.09375 C 1.585938 0.09375 1.164062 -0.128906 0.875 -0.578125 C 0.59375 -1.023438 0.453125 -1.691406 0.453125 -2.578125 C 0.453125 -3.453125 0.59375 -4.113281 0.875 -4.5625 C 1.164062 -5.019531 1.585938 -5.25 2.140625 -5.25 Z M 2.140625 -0.453125 C 2.460938 -0.453125 2.703125 -0.625 2.859375 -0.96875 C 3.023438 -1.320312 3.109375 -1.859375 3.109375 -2.578125 C 3.109375 -2.953125 3.082031 -3.296875 3.03125 -3.609375 L 1.390625 -1.03125 C 1.566406 -0.644531 1.816406 -0.453125 2.140625 -0.453125 Z M 2.140625 -4.6875 C 1.804688 -4.6875 1.554688 -4.507812 1.390625 -4.15625 C 1.234375 -3.8125 1.15625 -3.285156 1.15625 -2.578125 C 1.15625 -2.242188 1.179688 -1.9375 1.234375 -1.65625 L 2.84375 -4.234375 C 2.664062 -4.535156 2.429688 -4.6875 2.140625 -4.6875 Z M 2.140625 -4.6875 "/>
</g>
<g id="glyph-2-1">
<path d="M 1.34375 -1.40625 L 2.5625 -1.40625 L 2.5625 0 L 1.34375 0 Z M 1.34375 -1.40625 "/>
</g>
<g id="glyph-2-2">
<path d="M 0.9375 -0.578125 L 2.015625 -0.578125 L 2.015625 -4.5 L 0.71875 -3.859375 L 0.71875 -4.53125 L 2.015625 -5.15625 L 2.71875 -5.15625 L 2.71875 -0.578125 L 3.796875 -0.578125 L 3.796875 0 L 0.9375 0 Z M 0.9375 -0.578125 "/>
</g>
<g id="glyph-2-3">
<path d="M 0.71875 -5.171875 L 3.328125 -5.171875 L 3.328125 -4.578125 L 1.359375 -4.578125 L 1.359375 -3.3125 C 1.453125 -3.34375 1.546875 -3.367188 1.640625 -3.390625 C 1.742188 -3.410156 1.847656 -3.421875 1.953125 -3.421875 C 2.492188 -3.421875 2.921875 -3.257812 3.234375 -2.9375 C 3.546875 -2.625 3.703125 -2.195312 3.703125 -1.65625 C 3.703125 -1.113281 3.535156 -0.6875 3.203125 -0.375 C 2.878906 -0.0625 2.429688 0.09375 1.859375 0.09375 C 1.585938 0.09375 1.335938 0.0703125 1.109375 0.03125 C 0.878906 0 0.675781 -0.0507812 0.5 -0.125 L 0.5 -0.828125 C 0.707031 -0.710938 0.914062 -0.625 1.125 -0.5625 C 1.34375 -0.507812 1.566406 -0.484375 1.796875 -0.484375 C 2.179688 -0.484375 2.476562 -0.582031 2.6875 -0.78125 C 2.894531 -0.988281 3 -1.28125 3 -1.65625 C 3 -2.03125 2.890625 -2.316406 2.671875 -2.515625 C 2.460938 -2.722656 2.164062 -2.828125 1.78125 -2.828125 C 1.59375 -2.828125 1.40625 -2.804688 1.21875 -2.765625 C 1.039062 -2.722656 0.875 -2.660156 0.71875 -2.578125 Z M 0.71875 -5.171875 "/>
</g>
<g id="glyph-2-4">
<path d="M 3.4375 -5.0625 L 3.4375 -4.40625 C 3.289062 -4.5 3.132812 -4.566406 2.96875 -4.609375 C 2.800781 -4.648438 2.628906 -4.671875 2.453125 -4.671875 C 2.015625 -4.671875 1.679688 -4.503906 1.453125 -4.171875 C 1.222656 -3.835938 1.109375 -3.347656 1.109375 -2.703125 C 1.210938 -2.929688 1.363281 -3.109375 1.5625 -3.234375 C 1.757812 -3.359375 1.984375 -3.421875 2.234375 -3.421875 C 2.734375 -3.421875 3.117188 -3.265625 3.390625 -2.953125 C 3.671875 -2.648438 3.8125 -2.21875 3.8125 -1.65625 C 3.8125 -1.101562 3.671875 -0.671875 3.390625 -0.359375 C 3.109375 -0.0546875 2.710938 0.09375 2.203125 0.09375 C 1.597656 0.09375 1.15625 -0.117188 0.875 -0.546875 C 0.59375 -0.972656 0.453125 -1.648438 0.453125 -2.578125 C 0.453125 -3.453125 0.617188 -4.117188 0.953125 -4.578125 C 1.296875 -5.035156 1.785156 -5.265625 2.421875 -5.265625 C 2.597656 -5.265625 2.769531 -5.242188 2.9375 -5.203125 C 3.101562 -5.171875 3.269531 -5.125 3.4375 -5.0625 Z M 2.1875 -2.875 C 1.882812 -2.875 1.644531 -2.765625 1.46875 -2.546875 C 1.300781 -2.335938 1.21875 -2.039062 1.21875 -1.65625 C 1.21875 -1.28125 1.300781 -0.984375 1.46875 -0.765625 C 1.644531 -0.554688 1.882812 -0.453125 2.1875 -0.453125 C 2.5 -0.453125 2.734375 -0.550781 2.890625 -0.75 C 3.046875 -0.957031 3.125 -1.257812 3.125 -1.65625 C 3.125 -2.0625 3.046875 -2.363281 2.890625 -2.5625 C 2.734375 -2.769531 2.5 -2.875 2.1875 -2.875 Z M 2.1875 -2.875 "/>
</g>
<g id="glyph-2-5">
<path d="M 2.6875 -2.765625 C 3.03125 -2.671875 3.289062 -2.507812 3.46875 -2.28125 C 3.644531 -2.050781 3.734375 -1.765625 3.734375 -1.421875 C 3.734375 -0.953125 3.570312 -0.582031 3.25 -0.3125 C 2.9375 -0.0390625 2.492188 0.09375 1.921875 0.09375 C 1.691406 0.09375 1.453125 0.0703125 1.203125 0.03125 C 0.953125 -0.0078125 0.707031 -0.0703125 0.46875 -0.15625 L 0.46875 -0.859375 C 0.707031 -0.734375 0.941406 -0.640625 1.171875 -0.578125 C 1.398438 -0.515625 1.628906 -0.484375 1.859375 -0.484375 C 2.234375 -0.484375 2.523438 -0.570312 2.734375 -0.75 C 2.941406 -0.925781 3.046875 -1.175781 3.046875 -1.5 C 3.046875 -1.800781 2.941406 -2.039062 2.734375 -2.21875 C 2.523438 -2.394531 2.25 -2.484375 1.90625 -2.484375 L 1.375 -2.484375 L 1.375 -3.046875 L 1.90625 -3.046875 C 2.226562 -3.046875 2.476562 -3.113281 2.65625 -3.25 C 2.832031 -3.394531 2.921875 -3.597656 2.921875 -3.859375 C 2.921875 -4.117188 2.835938 -4.316406 2.671875 -4.453125 C 2.503906 -4.597656 2.265625 -4.671875 1.953125 -4.671875 C 1.753906 -4.671875 1.539062 -4.644531 1.3125 -4.59375 C 1.09375 -4.550781 0.863281 -4.488281 0.625 -4.40625 L 0.625 -5.046875 C 0.90625 -5.117188 1.15625 -5.171875 1.375 -5.203125 C 1.59375 -5.242188 1.785156 -5.265625 1.953125 -5.265625 C 2.460938 -5.265625 2.863281 -5.132812 3.15625 -4.875 C 3.457031 -4.625 3.609375 -4.289062 3.609375 -3.875 C 3.609375 -3.59375 3.53125 -3.359375 3.375 -3.171875 C 3.21875 -2.984375 2.988281 -2.847656 2.6875 -2.765625 Z M 2.6875 -2.765625 "/>
</g>
<g id="glyph-2-6">
<path d="M 1.296875 -0.59375 L 3.671875 -0.59375 L 3.671875 0 L 0.53125 0 L 0.53125 -0.59375 C 0.957031 -1.039062 1.332031 -1.4375 1.65625 -1.78125 C 1.976562 -2.132812 2.203125 -2.382812 2.328125 -2.53125 C 2.554688 -2.8125 2.710938 -3.039062 2.796875 -3.21875 C 2.878906 -3.394531 2.921875 -3.570312 2.921875 -3.75 C 2.921875 -4.039062 2.832031 -4.265625 2.65625 -4.421875 C 2.488281 -4.585938 2.257812 -4.671875 1.96875 -4.671875 C 1.757812 -4.671875 1.535156 -4.632812 1.296875 -4.5625 C 1.066406 -4.488281 0.820312 -4.375 0.5625 -4.21875 L 0.5625 -4.921875 C 0.800781 -5.035156 1.035156 -5.117188 1.265625 -5.171875 C 1.492188 -5.234375 1.722656 -5.265625 1.953125 -5.265625 C 2.453125 -5.265625 2.859375 -5.128906 3.171875 -4.859375 C 3.484375 -4.585938 3.640625 -4.234375 3.640625 -3.796875 C 3.640625 -3.578125 3.585938 -3.359375 3.484375 -3.140625 C 3.378906 -2.921875 3.210938 -2.675781 2.984375 -2.40625 C 2.847656 -2.25 2.65625 -2.035156 2.40625 -1.765625 C 2.164062 -1.503906 1.796875 -1.113281 1.296875 -0.59375 Z M 1.296875 -0.59375 "/>
</g>
<g id="glyph-2-7">
<path d="M 2.546875 -4.53125 L 0.921875 -1.796875 L 2.546875 -1.796875 Z M 2.4375 -5.171875 L 3.234375 -5.171875 L 3.234375 -1.796875 L 3.9375 -1.796875 L 3.9375 -1.234375 L 3.234375 -1.234375 L 3.234375 0 L 2.546875 0 L 2.546875 -1.234375 L 0.359375 -1.234375 L 0.359375 -1.890625 Z M 2.4375 -5.171875 "/>
</g>
<g id="glyph-2-8">
<path d="M 0.484375 -5.171875 L 3.734375 -5.171875 L 3.734375 -4.875 L 1.890625 0 L 1.15625 0 L 2.953125 -4.578125 L 0.484375 -4.578125 Z M 0.484375 -5.171875 "/>
</g>
<g id="glyph-2-9">
<path d="M 2.140625 -2.453125 C 1.828125 -2.453125 1.582031 -2.363281 1.40625 -2.1875 C 1.238281 -2.019531 1.15625 -1.773438 1.15625 -1.453125 C 1.15625 -1.140625 1.238281 -0.894531 1.40625 -0.71875 C 1.582031 -0.539062 1.828125 -0.453125 2.140625 -0.453125 C 2.453125 -0.453125 2.691406 -0.535156 2.859375 -0.703125 C 3.023438 -0.878906 3.109375 -1.128906 3.109375 -1.453125 C 3.109375 -1.765625 3.019531 -2.007812 2.84375 -2.1875 C 2.675781 -2.363281 2.441406 -2.453125 2.140625 -2.453125 Z M 1.53125 -2.75 C 1.226562 -2.820312 0.992188 -2.960938 0.828125 -3.171875 C 0.660156 -3.378906 0.578125 -3.628906 0.578125 -3.921875 C 0.578125 -4.335938 0.710938 -4.664062 0.984375 -4.90625 C 1.265625 -5.144531 1.648438 -5.265625 2.140625 -5.265625 C 2.617188 -5.265625 3 -5.144531 3.28125 -4.90625 C 3.5625 -4.664062 3.703125 -4.335938 3.703125 -3.921875 C 3.703125 -3.628906 3.613281 -3.378906 3.4375 -3.171875 C 3.269531 -2.960938 3.039062 -2.820312 2.75 -2.75 C 3.09375 -2.664062 3.351562 -2.507812 3.53125 -2.28125 C 3.71875 -2.050781 3.8125 -1.753906 3.8125 -1.390625 C 3.8125 -0.921875 3.660156 -0.554688 3.359375 -0.296875 C 3.066406 -0.0351562 2.660156 0.09375 2.140625 0.09375 C 1.609375 0.09375 1.191406 -0.0351562 0.890625 -0.296875 C 0.597656 -0.554688 0.453125 -0.914062 0.453125 -1.375 C 0.453125 -1.75 0.539062 -2.050781 0.71875 -2.28125 C 0.90625 -2.507812 1.175781 -2.664062 1.53125 -2.75 Z M 1.265625 -3.859375 C 1.265625 -3.578125 1.335938 -3.363281 1.484375 -3.21875 C 1.640625 -3.070312 1.859375 -3 2.140625 -3 C 2.421875 -3 2.632812 -3.070312 2.78125 -3.21875 C 2.925781 -3.363281 3 -3.578125 3 -3.859375 C 3 -4.140625 2.925781 -4.351562 2.78125 -4.5 C 2.632812 -4.644531 2.421875 -4.71875 2.140625 -4.71875 C 1.859375 -4.71875 1.640625 -4.644531 1.484375 -4.5 C 1.335938 -4.351562 1.265625 -4.140625 1.265625 -3.859375 Z M 1.265625 -3.859375 "/>
</g>
</g>
<clipPath id="clip-0">
<path clip-rule="nonzero" d="M 6 21.480469 L 307.472656 21.480469 L 307.472656 266.542969 L 6 266.542969 Z M 6 21.480469 "/>
</clipPath>
<clipPath id="clip-1">
<path clip-rule="nonzero" d="M 6 6 L 103.050781 6 L 103.050781 21.480469 L 6 21.480469 Z M 6 6 "/>
</clipPath>
<clipPath id="clip-2">
<path clip-rule="nonzero" d="M 6 6 L 7 6 L 7 22 L 6 22 Z M 6 6 "/>
</clipPath>
<clipPath id="clip-3">
<path clip-rule="evenodd" d="M 6 21.480469 L 6 6 L 6.5 6.5 L 6.5 21.480469 "/>
</clipPath>
<clipPath id="clip-4">
<path clip-rule="nonzero" d="M 102 6 L 104 6 L 104 22 L 102 22 Z M 102 6 "/>
</clipPath>
<clipPath id="clip-5">
<path clip-rule="evenodd" d="M 103.050781 21.480469 L 103.050781 6 L 102.550781 6.5 L 102.550781 21.480469 "/>
</clipPath>
<clipPath id="clip-6">
<path clip-rule="nonzero" d="M 6 6 L 104 6 L 104 7 L 6 7 Z M 6 6 "/>
</clipPath>
<clipPath id="clip-7">
<path clip-rule="evenodd" d="M 103.050781 6 L 6 6 L 6.5 6.5 L 102.550781 6.5 "/>
</clipPath>
<clipPath id="clip-8">
<path clip-rule="nonzero" d="M 15.003906 159 L 25 159 L 25 161 L 15.003906 161 Z M 15.003906 159 "/>
</clipPath>
</defs>
<g clip-path="url(#clip-0)">
<path fill-rule="nonzero" fill="rgb(100%, 100%, 100%)" fill-opacity="1" d="M 6 21.480469 L 307.472656 21.480469 L 307.472656 266.542969 L 6 266.542969 Z M 6 21.480469 "/>
</g>
<path fill-rule="evenodd" fill="rgb(54.116821%, 54.116821%, 54.116821%)" fill-opacity="1" d="M 6.5 21.980469 L 306.972656 21.980469 L 306.972656 266.042969 L 6.5 266.042969 Z M 6 21.480469 L 307.472656 21.480469 L 307.472656 266.542969 L 6 266.542969 Z M 6 21.480469 "/>
<g clip-path="url(#clip-1)">
<path fill-rule="nonzero" fill="rgb(92.547607%, 92.547607%, 92.547607%)" fill-opacity="1" d="M 6 6 L 103.050781 6 L 103.050781 21.480469 L 6 21.480469 Z M 6 6 "/>
</g>
<g clip-path="url(#clip-2)">
<g clip-path="url(#clip-3)">
<path fill-rule="evenodd" fill="rgb(54.116821%, 54.116821%, 54.116821%)" fill-opacity="1" d="M 6.5 6.5 L 102.550781 6.5 L 102.550781 21.480469 L 6.5 21.480469 Z M 6 6 L 103.050781 6 L 103.050781 21.480469 L 6 21.480469 Z M 6 6 "/>
</g>
</g>
<g clip-path="url(#clip-4)">
<g clip-path="url(#clip-5)">
<path fill-rule="evenodd" fill="rgb(54.116821%, 54.116821%, 54.116821%)" fill-opacity="1" d="M 6.5 6.5 L 102.550781 6.5 L 102.550781 21.480469 L 6.5 21.480469 Z M 6 6 L 103.050781 6 L 103.050781 21.480469 L 6 21.480469 Z M 6 6 "/>
</g>
</g>
<g clip-path="url(#clip-6)">
<g clip-path="url(#clip-7)">
<path fill-rule="evenodd" fill="rgb(54.116821%, 54.116821%, 54.116821%)" fill-opacity="1" d="M 6.5 6.5 L 102.550781 6.5 L 102.550781 21.480469 L 6.5 21.480469 Z M 6 6 L 103.050781 6 L 103.050781 21.480469 L 6 21.480469 Z M 6 6 "/>
</g>
</g>
<g fill="rgb(6.666565%, 6.666565%, 6.666565%)" fill-opacity="1">
<use xlink:href="#glyph-0-0" x="13.586615" y="16.759939"/>
</g>
<g fill="rgb(6.666565%, 6.666565%, 6.666565%)" fill-opacity="1">
<use xlink:href="#glyph-0-1" x="18.402321" y="16.759939"/>
</g>
<g fill="rgb(6.666565%, 6.666565%, 6.666565%)" fill-opacity="1">
<use xlink:href="#glyph-0-2" x="23.218027" y="16.759939"/>
</g>
<g fill="rgb(6.666565%, 6.666565%, 6.666565%)" fill-opacity="1">
<use xlink:href="#glyph-0-3" x="28.033733" y="16.759939"/>
</g>
<g fill="rgb(6.666565%, 6.666565%, 6.666565%)" fill-opacity="1">
<use xlink:href="#glyph-0-4" x="32.849439" y="16.759939"/>
</g>
<g fill="rgb(6.666565%, 6.666565%, 6.666565%)" fill-opacity="1">
<use xlink:href="#glyph-0-5" x="37.665146" y="16.759939"/>
</g>
<g fill="rgb(6.666565%, 6.666565%, 6.666565%)" fill-opacity="1">
<use xlink:href="#glyph-0-6" x="42.480852" y="16.759939"/>
</g>
<g fill="rgb(6.666565%, 6.666565%, 6.666565%)" fill-opacity="1">
<use xlink:href="#glyph-0-7" x="47.296558" y="16.759939"/>
</g>
<g fill="rgb(6.666565%, 6.666565%, 6.666565%)" fill-opacity="1">
<use xlink:href="#glyph-0-2" x="52.112264" y="16.759939"/>
</g>
<g fill="rgb(6.666565%, 6.666565%, 6.666565%)" fill-opacity="1">
<use xlink:href="#glyph-0-8" x="56.927971" y="16.759939"/>
</g>
<g fill="rgb(6.666565%, 6.666565%, 6.666565%)" fill-opacity="1">
<use xlink:href="#glyph-0-9" x="61.743677" y="16.759939"/>
</g>
<g fill="rgb(6.666565%, 6.666565%, 6.666565%)" fill-opacity="1">
<use xlink:href="#glyph-0-4" x="66.559383" y="16.759939"/>
</g>
<g fill="rgb(6.666565%, 6.666565%, 6.666565%)" fill-opacity="1">
<use xlink:href="#glyph-0-4" x="71.375089" y="16.759939"/>
</g>
<g fill="rgb(6.666565%, 6.666565%, 6.666565%)" fill-opacity="1">
<use xlink:href="#glyph-0-10" x="76.190795" y="16.759939"/>
</g>
<g fill="rgb(6.666565%, 6.666565%, 6.666565%)" fill-opacity="1">
<use xlink:href="#glyph-0-6" x="81.006502" y="16.759939"/>
</g>
<g fill="rgb(6.666565%, 6.666565%, 6.666565%)" fill-opacity="1">
<use xlink:href="#glyph-0-11" x="85.822208" y="16.759939"/>
</g>
<g fill="rgb(6.666565%, 6.666565%, 6.666565%)" fill-opacity="1">
<use xlink:href="#glyph-0-12" x="90.637914" y="16.759939"/>
</g>
<g fill="rgb(33.332825%, 33.332825%, 33.332825%)" fill-opacity="1">
<use xlink:href="#glyph-0-13" x="6" y="276.804234"/>
</g>
<g fill="rgb(33.332825%, 33.332825%, 33.332825%)" fill-opacity="1">
<use xlink:href="#glyph-0-7" x="10.815706" y="276.804234"/>
</g>
<g fill="rgb(33.332825%, 33.332825%, 33.332825%)" fill-opacity="1">
<use xlink:href="#glyph-0-3" x="15.631412" y="276.804234"/>
</g>
<g fill="rgb(33.332825%, 33.332825%, 33.332825%)" fill-opacity="1">
<use xlink:href="#glyph-0-2" x="20.447119" y="276.804234"/>
</g>
<g fill="rgb(33.332825%, 33.332825%, 33.332825%)" fill-opacity="1">
<use xlink:href="#glyph-0-14" x="25.262825" y="276.804234"/>
</g>
<g fill="rgb(33.332825%, 33.332825%, 33.332825%)" fill-opacity="1">
<use xlink:href="#glyph-0-15" x="30.078531" y="276.804234"/>
</g>
<g fill="rgb(33.332825%, 33.332825%, 33.332825%)" fill-opacity="1">
<use xlink:href="#glyph-0-6" x="34.894237" y="276.804234"/>
</g>
<g fill="rgb(33.332825%, 33.332825%, 33.332825%)" fill-opacity="1">
<use xlink:href="#glyph-0-16" x="39.709944" y="276.804234"/>
</g>
<g fill="rgb(33.332825%, 33.332825%, 33.332825%)" fill-opacity="1">
<use xlink:href="#glyph-0-17" x="44.52565" y="276.804234"/>
</g>
<g fill="rgb(33.332825%, 33.332825%, 33.332825%)" fill-opacity="1">
<use xlink:href="#glyph-0-18" x="49.341356" y="276.804234"/>
</g>
<g fill="rgb(33.332825%, 33.332825%, 33.332825%)" fill-opacity="1">
<use xlink:href="#glyph-0-15" x="54.157062" y="276.804234"/>
</g>
<g fill="rgb(33.332825%, 33.332825%, 33.332825%)" fill-opacity="1">
<use xlink:href="#glyph-0-6" x="58.972768" y="276.804234"/>
</g>
<g fill="rgb(33.332825%, 33.332825%, 33.332825%)" fill-opacity="1">
<use xlink:href="#glyph-0-11" x="63.788475" y="276.804234"/>
</g>
<g fill="rgb(33.332825%, 33.332825%, 33.332825%)" fill-opacity="1">
<use xlink:href="#glyph-0-14" x="68.604181" y="276.804234"/>
</g>
<g fill="rgb(33.332825%, 33.332825%, 33.332825%)" fill-opacity="1">
<use xlink:href="#glyph-0-19" x="73.419887" y="276.804234"/>
</g>
<g fill="rgb(33.332825%, 33.332825%, 33.332825%)" fill-opacity="1">
<use xlink:href="#glyph-0-4" x="78.235593" y="276.804234"/>
</g>
<g fill="rgb(33.332825%, 33.332825%, 33.332825%)" fill-opacity="1">
<use xlink:href="#glyph-0-15" x="83.0513" y="276.804234"/>
</g>
<g fill="rgb(33.332825%, 33.332825%, 33.332825%)" fill-opacity="1">
<use xlink:href="#glyph-0-14" x="87.867006" y="276.804234"/>
</g>
<g fill="rgb(33.332825%, 33.332825%, 33.332825%)" fill-opacity="1">
<use xlink:href="#glyph-0-20" x="92.682712" y="276.804234"/>
</g>
<g fill="rgb(33.332825%, 33.332825%, 33.332825%)" fill-opacity="1">
<use xlink:href="#glyph-0-4" x="97.498418" y="276.804234"/>
</g>
<g fill="rgb(33.332825%, 33.332825%, 33.332825%)" fill-opacity="1">
<use xlink:href="#glyph-0-21" x="102.314124" y="276.804234"/>
</g>
<g fill="rgb(33.332825%, 33.332825%, 33.332825%)" fill-opacity="1">
<use xlink:href="#glyph-0-22" x="107.129831" y="276.804234"/>
</g>
<g fill="rgb(33.332825%, 33.332825%, 33.332825%)" fill-opacity="1">
<use xlink:href="#glyph-0-17" x="111.945537" y="276.804234"/>
</g>
<g fill="rgb(33.332825%, 33.332825%, 33.332825%)" fill-opacity="1">
<use xlink:href="#glyph-0-10" x="116.761243" y="276.804234"/>
</g>
<g fill="rgb(33.332825%, 33.332825%, 33.332825%)" fill-opacity="1">
<use xlink:href="#glyph-0-23" x="121.576949" y="276.804234"/>
</g>
<g fill="rgb(33.332825%, 33.332825%, 33.332825%)" fill-opacity="1">
<use xlink:href="#glyph-0-10" x="126.392656" y="276.804234"/>
</g>
<g fill="rgb(33.332825%, 33.332825%, 33.332825%)" fill-opacity="1">
<use xlink:href="#glyph-0-18" x="131.208362" y="276.804234"/>
</g>
<g fill="rgb(33.332825%, 33.332825%, 33.332825%)" fill-opacity="1">
<use xlink:href="#glyph-0-4" x="136.024068" y="276.804234"/>
</g>
<g fill="rgb(33.332825%, 33.332825%, 33.332825%)" fill-opacity="1">
<use xlink:href="#glyph-0-7" x="140.839774" y="276.804234"/>
</g>
<g fill="rgb(33.332825%, 33.332825%, 33.332825%)" fill-opacity="1">
<use xlink:href="#glyph-0-14" x="145.65548" y="276.804234"/>
</g>
<g fill="rgb(33.332825%, 33.332825%, 33.332825%)" fill-opacity="1">
<use xlink:href="#glyph-0-4" x="150.471187" y="276.804234"/>
</g>
<g fill="rgb(33.332825%, 33.332825%, 33.332825%)" fill-opacity="1">
<use xlink:href="#glyph-0-19" x="155.286893" y="276.804234"/>
</g>
<g fill="rgb(33.332825%, 33.332825%, 33.332825%)" fill-opacity="1">
<use xlink:href="#glyph-0-14" x="160.102599" y="276.804234"/>
</g>
<g fill="rgb(33.332825%, 33.332825%, 33.332825%)" fill-opacity="1">
<use xlink:href="#glyph-0-22" x="164.918305" y="276.804234"/>
</g>
<g fill="rgb(33.332825%, 33.332825%, 33.332825%)" fill-opacity="1">
<use xlink:href="#glyph-0-1" x="169.734012" y="276.804234"/>
</g>
<g fill="rgb(33.332825%, 33.332825%, 33.332825%)" fill-opacity="1">
<use xlink:href="#glyph-0-2" x="174.549718" y="276.804234"/>
</g>
<g fill="rgb(33.332825%, 33.332825%, 33.332825%)" fill-opacity="1">
<use xlink:href="#glyph-0-3" x="179.365424" y="276.804234"/>
</g>
<g fill="rgb(33.332825%, 33.332825%, 33.332825%)" fill-opacity="1">
<use xlink:href="#glyph-0-4" x="184.18113" y="276.804234"/>
</g>
<g fill="rgb(33.332825%, 33.332825%, 33.332825%)" fill-opacity="1">
<use xlink:href="#glyph-0-5" x="188.996837" y="276.804234"/>
</g>
<g fill="rgb(33.332825%, 33.332825%, 33.332825%)" fill-opacity="1">
<use xlink:href="#glyph-0-6" x="193.812543" y="276.804234"/>
</g>
<g fill="rgb(33.332825%, 33.332825%, 33.332825%)" fill-opacity="1">
<use xlink:href="#glyph-0-7" x="198.628249" y="276.804234"/>
</g>
<g fill="rgb(33.332825%, 33.332825%, 33.332825%)" fill-opacity="1">
<use xlink:href="#glyph-0-6" x="203.443955" y="276.804234"/>
</g>
<g fill="rgb(33.332825%, 33.332825%, 33.332825%)" fill-opacity="1">
<use xlink:href="#glyph-0-10" x="208.259661" y="276.804234"/>
</g>
<g fill="rgb(33.332825%, 33.332825%, 33.332825%)" fill-opacity="1">
<use xlink:href="#glyph-0-18" x="213.075368" y="276.804234"/>
</g>
<g fill="rgb(33.332825%, 33.332825%, 33.332825%)" fill-opacity="1">
<use xlink:href="#glyph-0-20" x="217.891074" y="276.804234"/>
</g>
<g fill="rgb(33.332825%, 33.332825%, 33.332825%)" fill-opacity="1">
<use xlink:href="#glyph-0-14" x="222.70678" y="276.804234"/>
</g>
<g fill="rgb(33.332825%, 33.332825%, 33.332825%)" fill-opacity="1">
<use xlink:href="#glyph-0-11" x="227.522486" y="276.804234"/>
</g>
<g fill="rgb(33.332825%, 33.332825%, 33.332825%)" fill-opacity="1">
<use xlink:href="#glyph-0-18" x="232.338193" y="276.804234"/>
</g>
<g fill="rgb(33.332825%, 33.332825%, 33.332825%)" fill-opacity="1">
<use xlink:href="#glyph-0-24" x="237.153899" y="276.804234"/>
</g>
<g fill="rgb(33.332825%, 33.332825%, 33.332825%)" fill-opacity="1">
<use xlink:href="#glyph-0-6" x="241.969605" y="276.804234"/>
</g>
<g fill="rgb(33.332825%, 33.332825%, 33.332825%)" fill-opacity="1">
<use xlink:href="#glyph-0-15" x="246.785311" y="276.804234"/>
</g>
<g fill="rgb(33.332825%, 33.332825%, 33.332825%)" fill-opacity="1">
<use xlink:href="#glyph-0-25" x="251.601017" y="276.804234"/>
</g>
<g fill="rgb(33.332825%, 33.332825%, 33.332825%)" fill-opacity="1">
<use xlink:href="#glyph-0-18" x="256.416724" y="276.804234"/>
</g>
<g fill="rgb(33.332825%, 33.332825%, 33.332825%)" fill-opacity="1">
<use xlink:href="#glyph-0-10" x="261.23243" y="276.804234"/>
</g>
<g fill="rgb(33.332825%, 33.332825%, 33.332825%)" fill-opacity="1">
<use xlink:href="#glyph-0-2" x="266.048136" y="276.804234"/>
</g>
<g fill="rgb(33.332825%, 33.332825%, 33.332825%)" fill-opacity="1">
<use xlink:href="#glyph-0-21" x="6" y="286.116245"/>
</g>
<g fill="rgb(33.332825%, 33.332825%, 33.332825%)" fill-opacity="1">
<use xlink:href="#glyph-0-6" x="10.815706" y="286.116245"/>
</g>
<g fill="rgb(33.332825%, 33.332825%, 33.332825%)" fill-opacity="1">
<use xlink:href="#glyph-0-10" x="15.631412" y="286.116245"/>
</g>
<g fill="rgb(33.332825%, 33.332825%, 33.332825%)" fill-opacity="1">
<use xlink:href="#glyph-0-15" x="20.447119" y="286.116245"/>
</g>
<g fill="rgb(33.332825%, 33.332825%, 33.332825%)" fill-opacity="1">
<use xlink:href="#glyph-0-18" x="25.262825" y="286.116245"/>
</g>
<g fill="rgb(33.332825%, 33.332825%, 33.332825%)" fill-opacity="1">
<use xlink:href="#glyph-0-20" x="30.078531" y="286.116245"/>
</g>
<g fill="rgb(33.332825%, 33.332825%, 33.332825%)" fill-opacity="1">
<use xlink:href="#glyph-0-25" x="34.894237" y="286.116245"/>
</g>
<g fill="rgb(33.332825%, 33.332825%, 33.332825%)" fill-opacity="1">
<use xlink:href="#glyph-0-26" x="39.709944" y="286.116245"/>
</g>
<g clip-path="url(#clip-8)">
<path fill="none" stroke-width="0.35" stroke-linecap="square" stroke-linejoin="miter" stroke="rgb(19.999695%, 19.999695%, 19.999695%)" stroke-opacity="1" stroke-miterlimit="4" d="M -0.0000107597 46.130668 L 2.999978 46.130668 " transform="matrix(2.834646, 0, 0, 2.834646, 15.003937, 29.067917)"/>
</g>
<path fill="none" stroke-width="0.35" stroke-linecap="square" stroke-linejoin="miter" stroke="rgb(19.999695%, 19.999695%, 19.999695%)" stroke-opacity="1" stroke-miterlimit="4" d="M 2.999978 24.91026 L 2.999978 67.349698 " transform="matrix(2.834646, 0, 0, 2.834646, 15.003937, 29.067917)"/>
<path fill="none" stroke-width="0.35" stroke-linecap="square" stroke-linejoin="miter" stroke="rgb(19.999695%, 19.999695%, 19.999695%)" stroke-opacity="1" stroke-miterlimit="4" d="M 2.999978 24.91026 L 9.100552 24.91026 " transform="matrix(2.834646, 0, 0, 2.834646, 15.003937, 29.067917)"/>
<path fill="none" stroke-width="0.35" stroke-linecap="square" stroke-linejoin="miter" stroke="rgb(19.999695%, 19.999695%, 19.999695%)" stroke-opacity="1" stroke-miterlimit="4" d="M 9.100552 11.350366 L 9.100552 38.479801 " transform="matrix(2.834646, 0, 0, 2.834646, 15.003937, 29.067917)"/>
<path fill="none" stroke-width="0.35" stroke-linecap="square" stroke-linejoin="miter" stroke="rgb(19.999695%, 19.999695%, 19.999695%)" stroke-opacity="1" stroke-miterlimit="4" d="M 9.100552 11.350366 L 34.35999 11.350366 " transform="matrix(2.834646, 0, 0, 2.834646, 15.003937, 29.067917)"/>
<path fill="none" stroke-width="0.35" stroke-linecap="square" stroke-linejoin="miter" stroke="rgb(19.999695%, 19.999695%, 19.999695%)" stroke-opacity="1" stroke-miterlimit="4" d="M 34.35999 6.100041 L 34.35999 16.599313 " transform="matrix(2.834646, 0, 0, 2.834646, 15.003937, 29.067917)"/>
<path fill="none" stroke-width="0.35" stroke-linecap="square" stroke-linejoin="miter" stroke="rgb(19.999695%, 19.999695%, 19.999695%)" stroke-opacity="1" stroke-miterlimit="4" d="M 34.35999 6.100041 L 39.519364 6.100041 " transform="matrix(2.834646, 0, 0, 2.834646, 15.003937, 29.067917)"/>
<g fill="rgb(6.666565%, 6.666565%, 6.666565%)" fill-opacity="1">
<use xlink:href="#glyph-1-0" x="131.56458" y="49.137211"/>
</g>
<g fill="rgb(6.666565%, 6.666565%, 6.666565%)" fill-opacity="1">
<use xlink:href="#glyph-1-1" x="136.342509" y="49.137211"/>
</g>
<g fill="rgb(6.666565%, 6.666565%, 6.666565%)" fill-opacity="1">
<use xlink:href="#glyph-1-2" x="141.120438" y="49.137211"/>
</g>
<g fill="rgb(6.666565%, 6.666565%, 6.666565%)" fill-opacity="1">
<use xlink:href="#glyph-1-3" x="145.898367" y="49.137211"/>
</g>
<path fill="none" stroke-width="0.35" stroke-linecap="square" stroke-linejoin="miter" stroke="rgb(19.999695%, 19.999695%, 19.999695%)" stroke-opacity="1" stroke-miterlimit="4" d="M 34.35999 16.599313 L 40.759598 16.599313 " transform="matrix(2.834646, 0, 0, 2.834646, 15.003937, 29.067917)"/>
<path fill="none" stroke-width="0.35" stroke-linecap="square" stroke-linejoin="miter" stroke="rgb(19.999695%, 19.999695%, 19.999695%)" stroke-opacity="1" stroke-miterlimit="4" d="M 40.759598 13.100475 L 40.759598 20.09953 " transform="matrix(2.834646, 0, 0, 2.834646, 15.003937, 29.067917)"/>
<path fill="none" stroke-width="0.35" stroke-linecap="square" stroke-linejoin="miter" stroke="rgb(19.999695%, 19.999695%, 19.999695%)" stroke-opacity="1" stroke-miterlimit="4" d="M 40.759598 13.100475 L 50.200537 13.100475 " transform="matrix(2.834646, 0, 0, 2.834646, 15.003937, 29.067917)"/>
<g fill="rgb(6.666565%, 6.666565%, 6.666565%)" fill-opacity="1">
<use xlink:href="#glyph-1-0" x="161.8386" y="68.979733"/>
</g>
<g fill="rgb(6.666565%, 6.666565%, 6.666565%)" fill-opacity="1">
<use xlink:href="#glyph-1-1" x="166.616529" y="68.979733"/>
</g>
<g fill="rgb(6.666565%, 6.666565%, 6.666565%)" fill-opacity="1">
<use xlink:href="#glyph-1-2" x="171.394458" y="68.979733"/>
</g>
<g fill="rgb(6.666565%, 6.666565%, 6.666565%)" fill-opacity="1">
<use xlink:href="#glyph-1-4" x="176.172387" y="68.979733"/>
</g>
<path fill="none" stroke-width="0.35" stroke-linecap="square" stroke-linejoin="miter" stroke="rgb(19.999695%, 19.999695%, 19.999695%)" stroke-opacity="1" stroke-miterlimit="4" d="M 40.759598 20.09953 L 43.740294 20.09953 " transform="matrix(2.834646, 0, 0, 2.834646, 15.003937, 29.067917)"/>
<g fill="rgb(6.666565%, 6.666565%, 6.666565%)" fill-opacity="1">
<use xlink:href="#glyph-1-0" x="143.526786" y="88.822255"/>
</g>
<g fill="rgb(6.666565%, 6.666565%, 6.666565%)" fill-opacity="1">
<use xlink:href="#glyph-1-1" x="148.304715" y="88.822255"/>
</g>
<g fill="rgb(6.666565%, 6.666565%, 6.666565%)" fill-opacity="1">
<use xlink:href="#glyph-1-2" x="153.082645" y="88.822255"/>
</g>
<g fill="rgb(6.666565%, 6.666565%, 6.666565%)" fill-opacity="1">
<use xlink:href="#glyph-1-5" x="157.860574" y="88.822255"/>
</g>
<path fill="none" stroke-width="0.35" stroke-linecap="square" stroke-linejoin="miter" stroke="rgb(19.999695%, 19.999695%, 19.999695%)" stroke-opacity="1" stroke-miterlimit="4" d="M 9.100552 38.479801 L 25.280097 38.479801 " transform="matrix(2.834646, 0, 0, 2.834646, 15.003937, 29.067917)"/>
<path fill="none" stroke-width="0.35" stroke-linecap="square" stroke-linejoin="miter" stroke="rgb(19.999695%, 19.999695%, 19.999695%)" stroke-opacity="1" stroke-miterlimit="4" d="M 25.280097 30.60018 L 25.280097 46.349776 " transform="matrix(2.834646, 0, 0, 2.834646, 15.003937, 29.067917)"/>
<path fill="none" stroke-width="0.35" stroke-linecap="square" stroke-linejoin="miter" stroke="rgb(19.999695%, 19.999695%, 19.999695%)" stroke-opacity="1" stroke-miterlimit="4" d="M 25.280097 30.60018 L 34.280063 30.60018 " transform="matrix(2.834646, 0, 0, 2.834646, 15.003937, 29.067917)"/>
<path fill="none" stroke-width="0.35" stroke-linecap="square" stroke-linejoin="miter" stroke="rgb(19.999695%, 19.999695%, 19.999695%)" stroke-opacity="1" stroke-miterlimit="4" d="M 34.280063 27.099963 L 34.280063 34.100396 " transform="matrix(2.834646, 0, 0, 2.834646, 15.003937, 29.067917)"/>
<path fill="none" stroke-width="0.35" stroke-linecap="square" stroke-linejoin="miter" stroke="rgb(19.999695%, 19.999695%, 19.999695%)" stroke-opacity="1" stroke-miterlimit="4" d="M 34.280063 27.099963 L 64.820142 27.099963 " transform="matrix(2.834646, 0, 0, 2.834646, 15.003937, 29.067917)"/>
<g fill="rgb(6.666565%, 6.666565%, 6.666565%)" fill-opacity="1">
<use xlink:href="#glyph-1-0" x="203.281124" y="108.664777"/>
</g>
<g fill="rgb(6.666565%, 6.666565%, 6.666565%)" fill-opacity="1">
<use xlink:href="#glyph-1-1" x="208.059053" y="108.664777"/>
</g>
<g fill="rgb(6.666565%, 6.666565%, 6.666565%)" fill-opacity="1">
<use xlink:href="#glyph-1-2" x="212.836982" y="108.664777"/>
</g>
<g fill="rgb(6.666565%, 6.666565%, 6.666565%)" fill-opacity="1">
<use xlink:href="#glyph-1-6" x="217.614911" y="108.664777"/>
</g>
<path fill="none" stroke-width="0.35" stroke-linecap="square" stroke-linejoin="miter" stroke="rgb(19.999695%, 19.999695%, 19.999695%)" stroke-opacity="1" stroke-miterlimit="4" d="M 34.280063 34.100396 L 61.080147 34.100396 " transform="matrix(2.834646, 0, 0, 2.834646, 15.003937, 29.067917)"/>
<g fill="rgb(6.666565%, 6.666565%, 6.666565%)" fill-opacity="1">
<use xlink:href="#glyph-1-0" x="192.679548" y="128.507299"/>
</g>
<g fill="rgb(6.666565%, 6.666565%, 6.666565%)" fill-opacity="1">
<use xlink:href="#glyph-1-1" x="197.457477" y="128.507299"/>
</g>
<g fill="rgb(6.666565%, 6.666565%, 6.666565%)" fill-opacity="1">
<use xlink:href="#glyph-1-2" x="202.235406" y="128.507299"/>
</g>
<g fill="rgb(6.666565%, 6.666565%, 6.666565%)" fill-opacity="1">
<use xlink:href="#glyph-1-4" x="207.013335" y="128.507299"/>
</g>
<g fill="rgb(6.666565%, 6.666565%, 6.666565%)" fill-opacity="1">
<use xlink:href="#glyph-1-4" x="211.791264" y="128.507299"/>
</g>
<path fill="none" stroke-width="0.35" stroke-linecap="square" stroke-linejoin="miter" stroke="rgb(19.999695%, 19.999695%, 19.999695%)" stroke-opacity="1" stroke-miterlimit="4" d="M 25.280097 46.349776 L 35.339775 46.349776 " transform="matrix(2.834646, 0, 0, 2.834646, 15.003937, 29.067917)"/>
<path fill="none" stroke-width="0.35" stroke-linecap="square" stroke-linejoin="miter" stroke="rgb(19.999695%, 19.999695%, 19.999695%)" stroke-opacity="1" stroke-miterlimit="4" d="M 35.339775 41.099451 L 35.339775 51.600101 " transform="matrix(2.834646, 0, 0, 2.834646, 15.003937, 29.067917)"/>
<path fill="none" stroke-width="0.35" stroke-linecap="square" stroke-linejoin="miter" stroke="rgb(19.999695%, 19.999695%, 19.999695%)" stroke-opacity="1" stroke-miterlimit="4" d="M 35.339775 41.099451 L 85.180654 41.099451 " transform="matrix(2.834646, 0, 0, 2.834646, 15.003937, 29.067917)"/>
<g fill="rgb(6.666565%, 6.666565%, 6.666565%)" fill-opacity="1">
<use xlink:href="#glyph-1-0" x="260.994517" y="148.349821"/>
</g>
<g fill="rgb(6.666565%, 6.666565%, 6.666565%)" fill-opacity="1">
<use xlink:href="#glyph-1-1" x="265.772446" y="148.349821"/>
</g>
<g fill="rgb(6.666565%, 6.666565%, 6.666565%)" fill-opacity="1">
<use xlink:href="#glyph-1-2" x="270.550375" y="148.349821"/>
</g>
<g fill="rgb(6.666565%, 6.666565%, 6.666565%)" fill-opacity="1">
<use xlink:href="#glyph-1-7" x="275.328304" y="148.349821"/>
</g>
<path fill="none" stroke-width="0.35" stroke-linecap="square" stroke-linejoin="miter" stroke="rgb(19.999695%, 19.999695%, 19.999695%)" stroke-opacity="1" stroke-miterlimit="4" d="M 35.339775 51.600101 L 76.500393 51.600101 " transform="matrix(2.834646, 0, 0, 2.834646, 15.003937, 29.067917)"/>
<path fill="none" stroke-width="0.35" stroke-linecap="square" stroke-linejoin="miter" stroke="rgb(19.999695%, 19.999695%, 19.999695%)" stroke-opacity="1" stroke-miterlimit="4" d="M 76.500393 48.099885 L 76.500393 55.100318 " transform="matrix(2.834646, 0, 0, 2.834646, 15.003937, 29.067917)"/>
<path fill="none" stroke-width="0.35" stroke-linecap="square" stroke-linejoin="miter" stroke="rgb(19.999695%, 19.999695%, 19.999695%)" stroke-opacity="1" stroke-miterlimit="4" d="M 76.500393 48.099885 L 81.06032 48.099885 " transform="matrix(2.834646, 0, 0, 2.834646, 15.003937, 29.067917)"/>
<g fill="rgb(6.666565%, 6.666565%, 6.666565%)" fill-opacity="1">
<use xlink:href="#glyph-1-0" x="249.315775" y="168.192343"/>
</g>
<g fill="rgb(6.666565%, 6.666565%, 6.666565%)" fill-opacity="1">
<use xlink:href="#glyph-1-1" x="254.093704" y="168.192343"/>
</g>
<g fill="rgb(6.666565%, 6.666565%, 6.666565%)" fill-opacity="1">
<use xlink:href="#glyph-1-2" x="258.871633" y="168.192343"/>
</g>
<g fill="rgb(6.666565%, 6.666565%, 6.666565%)" fill-opacity="1">
<use xlink:href="#glyph-1-8" x="263.649562" y="168.192343"/>
</g>
<path fill="none" stroke-width="0.35" stroke-linecap="square" stroke-linejoin="miter" stroke="rgb(19.999695%, 19.999695%, 19.999695%)" stroke-opacity="1" stroke-miterlimit="4" d="M 76.500393 55.100318 L 88.820053 55.100318 " transform="matrix(2.834646, 0, 0, 2.834646, 15.003937, 29.067917)"/>
<g fill="rgb(6.666565%, 6.666565%, 6.666565%)" fill-opacity="1">
<use xlink:href="#glyph-1-0" x="271.312628" y="188.034865"/>
</g>
<g fill="rgb(6.666565%, 6.666565%, 6.666565%)" fill-opacity="1">
<use xlink:href="#glyph-1-1" x="276.090557" y="188.034865"/>
</g>
<g fill="rgb(6.666565%, 6.666565%, 6.666565%)" fill-opacity="1">
<use xlink:href="#glyph-1-2" x="280.868486" y="188.034865"/>
</g>
<g fill="rgb(6.666565%, 6.666565%, 6.666565%)" fill-opacity="1">
<use xlink:href="#glyph-1-4" x="285.646415" y="188.034865"/>
</g>
<g fill="rgb(6.666565%, 6.666565%, 6.666565%)" fill-opacity="1">
<use xlink:href="#glyph-1-9" x="290.424344" y="188.034865"/>
</g>
<path fill="none" stroke-width="0.35" stroke-linecap="square" stroke-linejoin="miter" stroke="rgb(19.999695%, 19.999695%, 19.999695%)" stroke-opacity="1" stroke-miterlimit="4" d="M 2.999978 67.349698 L 14.29989 67.349698 " transform="matrix(2.834646, 0, 0, 2.834646, 15.003937, 29.067917)"/>
<path fill="none" stroke-width="0.35" stroke-linecap="square" stroke-linejoin="miter" stroke="rgb(19.999695%, 19.999695%, 19.999695%)" stroke-opacity="1" stroke-miterlimit="4" d="M 14.29989 62.099373 L 14.29989 72.600023 " transform="matrix(2.834646, 0, 0, 2.834646, 15.003937, 29.067917)"/>
<path fill="none" stroke-width="0.35" stroke-linecap="square" stroke-linejoin="miter" stroke="rgb(19.999695%, 19.999695%, 19.999695%)" stroke-opacity="1" stroke-miterlimit="4" d="M 14.29989 62.099373 L 46.270372 62.099373 " transform="matrix(2.834646, 0, 0, 2.834646, 15.003937, 29.067917)"/>
<g fill="rgb(6.666565%, 6.666565%, 6.666565%)" fill-opacity="1">
<use xlink:href="#glyph-1-0" x="150.698441" y="207.877387"/>
</g>
<g fill="rgb(6.666565%, 6.666565%, 6.666565%)" fill-opacity="1">
<use xlink:href="#glyph-1-1" x="155.47637" y="207.877387"/>
</g>
<g fill="rgb(6.666565%, 6.666565%, 6.666565%)" fill-opacity="1">
<use xlink:href="#glyph-1-2" x="160.254299" y="207.877387"/>
</g>
<g fill="rgb(6.666565%, 6.666565%, 6.666565%)" fill-opacity="1">
<use xlink:href="#glyph-1-10" x="165.032228" y="207.877387"/>
</g>
<path fill="none" stroke-width="0.35" stroke-linecap="square" stroke-linejoin="miter" stroke="rgb(19.999695%, 19.999695%, 19.999695%)" stroke-opacity="1" stroke-miterlimit="4" d="M 14.29989 72.600023 L 28.540535 72.600023 " transform="matrix(2.834646, 0, 0, 2.834646, 15.003937, 29.067917)"/>
<path fill="none" stroke-width="0.35" stroke-linecap="square" stroke-linejoin="miter" stroke="rgb(19.999695%, 19.999695%, 19.999695%)" stroke-opacity="1" stroke-miterlimit="4" d="M 28.540535 69.099806 L 28.540535 76.100239 " transform="matrix(2.834646, 0, 0, 2.834646, 15.003937, 29.067917)"/>
<path fill="none" stroke-width="0.35" stroke-linecap="square" stroke-linejoin="miter" stroke="rgb(19.999695%, 19.999695%, 19.999695%)" stroke-opacity="1" stroke-miterlimit="4" d="M 28.540535 69.099806 L 87.319369 69.099806 " transform="matrix(2.834646, 0, 0, 2.834646, 15.003937, 29.067917)"/>
<g fill="rgb(6.666565%, 6.666565%, 6.666565%)" fill-opacity="1">
<use xlink:href="#glyph-1-0" x="267.060659" y="227.719909"/>
</g>
<g fill="rgb(6.666565%, 6.666565%, 6.666565%)" fill-opacity="1">
<use xlink:href="#glyph-1-1" x="271.838588" y="227.719909"/>
</g>
<g fill="rgb(6.666565%, 6.666565%, 6.666565%)" fill-opacity="1">
<use xlink:href="#glyph-1-2" x="276.616517" y="227.719909"/>
</g>
<g fill="rgb(6.666565%, 6.666565%, 6.666565%)" fill-opacity="1">
<use xlink:href="#glyph-1-11" x="281.394446" y="227.719909"/>
</g>
<path fill="none" stroke-width="0.35" stroke-linecap="square" stroke-linejoin="miter" stroke="rgb(19.999695%, 19.999695%, 19.999695%)" stroke-opacity="1" stroke-miterlimit="4" d="M 28.540535 76.100239 L 88.820053 76.100239 " transform="matrix(2.834646, 0, 0, 2.834646, 15.003937, 29.067917)"/>
<g fill="rgb(6.666565%, 6.666565%, 6.666565%)" fill-opacity="1">
<use xlink:href="#glyph-1-0" x="271.312628" y="247.562431"/>
</g>
<g fill="rgb(6.666565%, 6.666565%, 6.666565%)" fill-opacity="1">
<use xlink:href="#glyph-1-1" x="276.090557" y="247.562431"/>
</g>
<g fill="rgb(6.666565%, 6.666565%, 6.666565%)" fill-opacity="1">
<use xlink:href="#glyph-1-2" x="280.868486" y="247.562431"/>
</g>
<g fill="rgb(6.666565%, 6.666565%, 6.666565%)" fill-opacity="1">
<use xlink:href="#glyph-1-12" x="285.646415" y="247.562431"/>
</g>
<path fill-rule="nonzero" fill="rgb(100%, 100%, 100%)" fill-opacity="1" d="M 20.332031 89.617188 L 44.003906 89.617188 L 44.003906 96.136719 L 20.332031 96.136719 Z M 20.332031 89.617188 "/>
<g fill="rgb(33.332825%, 33.332825%, 33.332825%)" fill-opacity="1">
<use xlink:href="#glyph-2-0" x="21.183465" y="95.143516"/>
</g>
<g fill="rgb(33.332825%, 33.332825%, 33.332825%)" fill-opacity="1">
<use xlink:href="#glyph-2-1" x="25.449276" y="95.143516"/>
</g>
<g fill="rgb(33.332825%, 33.332825%, 33.332825%)" fill-opacity="1">
<use xlink:href="#glyph-2-0" x="29.715086" y="95.143516"/>
</g>
<g fill="rgb(33.332825%, 33.332825%, 33.332825%)" fill-opacity="1">
<use xlink:href="#glyph-2-2" x="33.980894" y="95.143516"/>
</g>
<g fill="rgb(33.332825%, 33.332825%, 33.332825%)" fill-opacity="1">
<use xlink:href="#glyph-2-3" x="38.246705" y="95.143516"/>
</g>
<path fill-rule="nonzero" fill="rgb(100%, 100%, 100%)" fill-opacity="1" d="M 64.753906 51.179688 L 88.421875 51.179688 L 88.421875 57.699219 L 64.753906 57.699219 Z M 64.753906 51.179688 "/>
<g fill="rgb(33.332825%, 33.332825%, 33.332825%)" fill-opacity="1">
<use xlink:href="#glyph-2-0" x="65.602368" y="56.705716"/>
</g>
<g fill="rgb(33.332825%, 33.332825%, 33.332825%)" fill-opacity="1">
<use xlink:href="#glyph-2-1" x="69.868178" y="56.705716"/>
</g>
<g fill="rgb(33.332825%, 33.332825%, 33.332825%)" fill-opacity="1">
<use xlink:href="#glyph-2-0" x="74.133989" y="56.705716"/>
</g>
<g fill="rgb(33.332825%, 33.332825%, 33.332825%)" fill-opacity="1">
<use xlink:href="#glyph-2-4" x="78.399797" y="56.705716"/>
</g>
<g fill="rgb(33.332825%, 33.332825%, 33.332825%)" fill-opacity="1">
<use xlink:href="#glyph-2-5" x="82.665607" y="56.705716"/>
</g>
<path fill-rule="nonzero" fill="rgb(100%, 100%, 100%)" fill-opacity="1" d="M 107.867188 36.296875 L 131.535156 36.296875 L 131.535156 42.816406 L 107.867188 42.816406 Z M 107.867188 36.296875 "/>
<g fill="rgb(33.332825%, 33.332825%, 33.332825%)" fill-opacity="1">
<use xlink:href="#glyph-2-0" x="108.717334" y="41.823824"/>
</g>
<g fill="rgb(33.332825%, 33.332825%, 33.332825%)" fill-opacity="1">
<use xlink:href="#glyph-2-1" x="112.983144" y="41.823824"/>
</g>
<g fill="rgb(33.332825%, 33.332825%, 33.332825%)" fill-opacity="1">
<use xlink:href="#glyph-2-0" x="117.248955" y="41.823824"/>
</g>
<g fill="rgb(33.332825%, 33.332825%, 33.332825%)" fill-opacity="1">
<use xlink:href="#glyph-2-2" x="121.514762" y="41.823824"/>
</g>
<g fill="rgb(33.332825%, 33.332825%, 33.332825%)" fill-opacity="1">
<use xlink:href="#glyph-2-5" x="125.780573" y="41.823824"/>
</g>
<path fill-rule="nonzero" fill="rgb(100%, 100%, 100%)" fill-opacity="1" d="M 109.625 66.058594 L 133.292969 66.058594 L 133.292969 72.578125 L 109.625 72.578125 Z M 109.625 66.058594 "/>
<g fill="rgb(33.332825%, 33.332825%, 33.332825%)" fill-opacity="1">
<use xlink:href="#glyph-2-0" x="110.474814" y="71.587607"/>
</g>
<g fill="rgb(33.332825%, 33.332825%, 33.332825%)" fill-opacity="1">
<use xlink:href="#glyph-2-1" x="114.740625" y="71.587607"/>
</g>
<g fill="rgb(33.332825%, 33.332825%, 33.332825%)" fill-opacity="1">
<use xlink:href="#glyph-2-0" x="119.006435" y="71.587607"/>
</g>
<g fill="rgb(33.332825%, 33.332825%, 33.332825%)" fill-opacity="1">
<use xlink:href="#glyph-2-2" x="123.272243" y="71.587607"/>
</g>
<g fill="rgb(33.332825%, 33.332825%, 33.332825%)" fill-opacity="1">
<use xlink:href="#glyph-2-4" x="127.538054" y="71.587607"/>
</g>
<path fill-rule="nonzero" fill="rgb(100%, 100%, 100%)" fill-opacity="1" d="M 132.101562 56.140625 L 155.773438 56.140625 L 155.773438 62.660156 L 132.101562 62.660156 Z M 132.101562 56.140625 "/>
<g fill="rgb(33.332825%, 33.332825%, 33.332825%)" fill-opacity="1">
<use xlink:href="#glyph-2-0" x="132.953557" y="61.666346"/>
</g>
<g fill="rgb(33.332825%, 33.332825%, 33.332825%)" fill-opacity="1">
<use xlink:href="#glyph-2-1" x="137.219367" y="61.666346"/>
</g>
<g fill="rgb(33.332825%, 33.332825%, 33.332825%)" fill-opacity="1">
<use xlink:href="#glyph-2-0" x="141.485178" y="61.666346"/>
</g>
<g fill="rgb(33.332825%, 33.332825%, 33.332825%)" fill-opacity="1">
<use xlink:href="#glyph-2-6" x="145.750986" y="61.666346"/>
</g>
<g fill="rgb(33.332825%, 33.332825%, 33.332825%)" fill-opacity="1">
<use xlink:href="#glyph-2-7" x="150.016796" y="61.666346"/>
</g>
<path fill-rule="nonzero" fill="rgb(100%, 100%, 100%)" fill-opacity="1" d="M 122.945312 75.980469 L 146.617188 75.980469 L 146.617188 82.5 L 122.945312 82.5 Z M 122.945312 75.980469 "/>
<g fill="rgb(33.332825%, 33.332825%, 33.332825%)" fill-opacity="1">
<use xlink:href="#glyph-2-0" x="123.79765" y="81.508868"/>
</g>
<g fill="rgb(33.332825%, 33.332825%, 33.332825%)" fill-opacity="1">
<use xlink:href="#glyph-2-1" x="128.063461" y="81.508868"/>
</g>
<g fill="rgb(33.332825%, 33.332825%, 33.332825%)" fill-opacity="1">
<use xlink:href="#glyph-2-0" x="132.329271" y="81.508868"/>
</g>
<g fill="rgb(33.332825%, 33.332825%, 33.332825%)" fill-opacity="1">
<use xlink:href="#glyph-2-0" x="136.595079" y="81.508868"/>
</g>
<g fill="rgb(33.332825%, 33.332825%, 33.332825%)" fill-opacity="1">
<use xlink:href="#glyph-2-8" x="140.86089" y="81.508868"/>
</g>
<path fill-rule="nonzero" fill="rgb(100%, 100%, 100%)" fill-opacity="1" d="M 51.882812 128.054688 L 75.550781 128.054688 L 75.550781 134.574219 L 51.882812 134.574219 Z M 51.882812 128.054688 "/>
<g fill="rgb(33.332825%, 33.332825%, 33.332825%)" fill-opacity="1">
<use xlink:href="#glyph-2-0" x="52.733075" y="133.609662"/>
</g>
<g fill="rgb(33.332825%, 33.332825%, 33.332825%)" fill-opacity="1">
<use xlink:href="#glyph-2-1" x="56.998886" y="133.609662"/>
</g>
<g fill="rgb(33.332825%, 33.332825%, 33.332825%)" fill-opacity="1">
<use xlink:href="#glyph-2-0" x="61.264696" y="133.609662"/>
</g>
<g fill="rgb(33.332825%, 33.332825%, 33.332825%)" fill-opacity="1">
<use xlink:href="#glyph-2-7" x="65.530504" y="133.609662"/>
</g>
<g fill="rgb(33.332825%, 33.332825%, 33.332825%)" fill-opacity="1">
<use xlink:href="#glyph-2-0" x="69.796314" y="133.609662"/>
</g>
<path fill-rule="nonzero" fill="rgb(100%, 100%, 100%)" fill-opacity="1" d="M 87.570312 105.746094 L 111.238281 105.746094 L 111.238281 112.265625 L 87.570312 112.265625 Z M 87.570312 105.746094 "/>
<g fill="rgb(33.332825%, 33.332825%, 33.332825%)" fill-opacity="1">
<use xlink:href="#glyph-2-0" x="88.421268" y="111.272651"/>
</g>
<g fill="rgb(33.332825%, 33.332825%, 33.332825%)" fill-opacity="1">
<use xlink:href="#glyph-2-1" x="92.687079" y="111.272651"/>
</g>
<g fill="rgb(33.332825%, 33.332825%, 33.332825%)" fill-opacity="1">
<use xlink:href="#glyph-2-0" x="96.952889" y="111.272651"/>
</g>
<g fill="rgb(33.332825%, 33.332825%, 33.332825%)" fill-opacity="1">
<use xlink:href="#glyph-2-6" x="101.218697" y="111.272651"/>
</g>
<g fill="rgb(33.332825%, 33.332825%, 33.332825%)" fill-opacity="1">
<use xlink:href="#glyph-2-6" x="105.484508" y="111.272651"/>
</g>
<path fill-rule="nonzero" fill="rgb(100%, 100%, 100%)" fill-opacity="1" d="M 143.613281 95.824219 L 167.28125 95.824219 L 167.28125 102.34375 L 143.613281 102.34375 Z M 143.613281 95.824219 "/>
<g fill="rgb(33.332825%, 33.332825%, 33.332825%)" fill-opacity="1">
<use xlink:href="#glyph-2-0" x="144.46222" y="101.35139"/>
</g>
<g fill="rgb(33.332825%, 33.332825%, 33.332825%)" fill-opacity="1">
<use xlink:href="#glyph-2-1" x="148.72803" y="101.35139"/>
</g>
<g fill="rgb(33.332825%, 33.332825%, 33.332825%)" fill-opacity="1">
<use xlink:href="#glyph-2-0" x="152.993841" y="101.35139"/>
</g>
<g fill="rgb(33.332825%, 33.332825%, 33.332825%)" fill-opacity="1">
<use xlink:href="#glyph-2-8" x="157.259648" y="101.35139"/>
</g>
<g fill="rgb(33.332825%, 33.332825%, 33.332825%)" fill-opacity="1">
<use xlink:href="#glyph-2-4" x="161.525459" y="101.35139"/>
</g>
<path fill-rule="nonzero" fill="rgb(100%, 100%, 100%)" fill-opacity="1" d="M 138.3125 115.667969 L 161.980469 115.667969 L 161.980469 122.1875 L 138.3125 122.1875 Z M 138.3125 115.667969 "/>
<g fill="rgb(33.332825%, 33.332825%, 33.332825%)" fill-opacity="1">
<use xlink:href="#glyph-2-0" x="139.161432" y="121.193912"/>
</g>
<g fill="rgb(33.332825%, 33.332825%, 33.332825%)" fill-opacity="1">
<use xlink:href="#glyph-2-1" x="143.427242" y="121.193912"/>
</g>
<g fill="rgb(33.332825%, 33.332825%, 33.332825%)" fill-opacity="1">
<use xlink:href="#glyph-2-0" x="147.693053" y="121.193912"/>
</g>
<g fill="rgb(33.332825%, 33.332825%, 33.332825%)" fill-opacity="1">
<use xlink:href="#glyph-2-4" x="151.95886" y="121.193912"/>
</g>
<g fill="rgb(33.332825%, 33.332825%, 33.332825%)" fill-opacity="1">
<use xlink:href="#glyph-2-8" x="156.224671" y="121.193912"/>
</g>
<path fill-rule="nonzero" fill="rgb(100%, 100%, 100%)" fill-opacity="1" d="M 89.074219 150.390625 L 112.742188 150.390625 L 112.742188 156.910156 L 89.074219 156.910156 Z M 89.074219 150.390625 "/>
<g fill="rgb(33.332825%, 33.332825%, 33.332825%)" fill-opacity="1">
<use xlink:href="#glyph-2-0" x="89.923631" y="155.918326"/>
</g>
<g fill="rgb(33.332825%, 33.332825%, 33.332825%)" fill-opacity="1">
<use xlink:href="#glyph-2-1" x="94.189441" y="155.918326"/>
</g>
<g fill="rgb(33.332825%, 33.332825%, 33.332825%)" fill-opacity="1">
<use xlink:href="#glyph-2-0" x="98.455252" y="155.918326"/>
</g>
<g fill="rgb(33.332825%, 33.332825%, 33.332825%)" fill-opacity="1">
<use xlink:href="#glyph-2-6" x="102.721059" y="155.918326"/>
</g>
<g fill="rgb(33.332825%, 33.332825%, 33.332825%)" fill-opacity="1">
<use xlink:href="#glyph-2-3" x="106.98687" y="155.918326"/>
</g>
<path fill-rule="nonzero" fill="rgb(100%, 100%, 100%)" fill-opacity="1" d="M 173.972656 135.507812 L 197.640625 135.507812 L 197.640625 142.027344 L 173.972656 142.027344 Z M 173.972656 135.507812 "/>
<g fill="rgb(33.332825%, 33.332825%, 33.332825%)" fill-opacity="1">
<use xlink:href="#glyph-2-0" x="174.821278" y="141.036434"/>
</g>
<g fill="rgb(33.332825%, 33.332825%, 33.332825%)" fill-opacity="1">
<use xlink:href="#glyph-2-1" x="179.087089" y="141.036434"/>
</g>
<g fill="rgb(33.332825%, 33.332825%, 33.332825%)" fill-opacity="1">
<use xlink:href="#glyph-2-2" x="183.352899" y="141.036434"/>
</g>
<g fill="rgb(33.332825%, 33.332825%, 33.332825%)" fill-opacity="1">
<use xlink:href="#glyph-2-6" x="187.618707" y="141.036434"/>
</g>
<g fill="rgb(33.332825%, 33.332825%, 33.332825%)" fill-opacity="1">
<use xlink:href="#glyph-2-7" x="191.884518" y="141.036434"/>
</g>
<path fill-rule="nonzero" fill="rgb(100%, 100%, 100%)" fill-opacity="1" d="M 161.695312 165.273438 L 185.367188 165.273438 L 185.367188 171.792969 L 161.695312 171.792969 Z M 161.695312 165.273438 "/>
<g fill="rgb(33.332825%, 33.332825%, 33.332825%)" fill-opacity="1">
<use xlink:href="#glyph-2-0" x="162.547261" y="170.800217"/>
</g>
<g fill="rgb(33.332825%, 33.332825%, 33.332825%)" fill-opacity="1">
<use xlink:href="#glyph-2-1" x="166.813072" y="170.800217"/>
</g>
<g fill="rgb(33.332825%, 33.332825%, 33.332825%)" fill-opacity="1">
<use xlink:href="#glyph-2-2" x="171.078882" y="170.800217"/>
</g>
<g fill="rgb(33.332825%, 33.332825%, 33.332825%)" fill-opacity="1">
<use xlink:href="#glyph-2-0" x="175.34469" y="170.800217"/>
</g>
<g fill="rgb(33.332825%, 33.332825%, 33.332825%)" fill-opacity="1">
<use xlink:href="#glyph-2-5" x="179.610501" y="170.800217"/>
</g>
<path fill-rule="nonzero" fill="rgb(100%, 100%, 100%)" fill-opacity="1" d="M 226.496094 155.351562 L 250.167969 155.351562 L 250.167969 161.871094 L 226.496094 161.871094 Z M 226.496094 155.351562 "/>
<g fill="rgb(33.332825%, 33.332825%, 33.332825%)" fill-opacity="1">
<use xlink:href="#glyph-2-0" x="227.347269" y="160.878956"/>
</g>
<g fill="rgb(33.332825%, 33.332825%, 33.332825%)" fill-opacity="1">
<use xlink:href="#glyph-2-1" x="231.613079" y="160.878956"/>
</g>
<g fill="rgb(33.332825%, 33.332825%, 33.332825%)" fill-opacity="1">
<use xlink:href="#glyph-2-0" x="235.87889" y="160.878956"/>
</g>
<g fill="rgb(33.332825%, 33.332825%, 33.332825%)" fill-opacity="1">
<use xlink:href="#glyph-2-2" x="240.144698" y="160.878956"/>
</g>
<g fill="rgb(33.332825%, 33.332825%, 33.332825%)" fill-opacity="1">
<use xlink:href="#glyph-2-2" x="244.410508" y="160.878956"/>
</g>
<path fill-rule="nonzero" fill="rgb(100%, 100%, 100%)" fill-opacity="1" d="M 237.496094 175.195312 L 261.164062 175.195312 L 261.164062 181.714844 L 237.496094 181.714844 Z M 237.496094 175.195312 "/>
<g fill="rgb(33.332825%, 33.332825%, 33.332825%)" fill-opacity="1">
<use xlink:href="#glyph-2-0" x="238.345695" y="180.721478"/>
</g>
<g fill="rgb(33.332825%, 33.332825%, 33.332825%)" fill-opacity="1">
<use xlink:href="#glyph-2-1" x="242.611506" y="180.721478"/>
</g>
<g fill="rgb(33.332825%, 33.332825%, 33.332825%)" fill-opacity="1">
<use xlink:href="#glyph-2-0" x="246.877316" y="180.721478"/>
</g>
<g fill="rgb(33.332825%, 33.332825%, 33.332825%)" fill-opacity="1">
<use xlink:href="#glyph-2-5" x="251.143124" y="180.721478"/>
</g>
<g fill="rgb(33.332825%, 33.332825%, 33.332825%)" fill-opacity="1">
<use xlink:href="#glyph-2-2" x="255.408935" y="180.721478"/>
</g>
<path fill-rule="nonzero" fill="rgb(100%, 100%, 100%)" fill-opacity="1" d="M 27.675781 209.917969 L 51.34375 209.917969 L 51.34375 216.4375 L 27.675781 216.4375 Z M 27.675781 209.917969 "/>
<g fill="rgb(33.332825%, 33.332825%, 33.332825%)" fill-opacity="1">
<use xlink:href="#glyph-2-0" x="28.525198" y="215.445892"/>
</g>
<g fill="rgb(33.332825%, 33.332825%, 33.332825%)" fill-opacity="1">
<use xlink:href="#glyph-2-1" x="32.791009" y="215.445892"/>
</g>
<g fill="rgb(33.332825%, 33.332825%, 33.332825%)" fill-opacity="1">
<use xlink:href="#glyph-2-0" x="37.056819" y="215.445892"/>
</g>
<g fill="rgb(33.332825%, 33.332825%, 33.332825%)" fill-opacity="1">
<use xlink:href="#glyph-2-6" x="41.322627" y="215.445892"/>
</g>
<g fill="rgb(33.332825%, 33.332825%, 33.332825%)" fill-opacity="1">
<use xlink:href="#glyph-2-9" x="45.588438" y="215.445892"/>
</g>
<path fill-rule="nonzero" fill="rgb(100%, 100%, 100%)" fill-opacity="1" d="M 89.015625 195.035156 L 112.6875 195.035156 L 112.6875 201.554688 L 89.015625 201.554688 Z M 89.015625 195.035156 "/>
<g fill="rgb(33.332825%, 33.332825%, 33.332825%)" fill-opacity="1">
<use xlink:href="#glyph-2-0" x="89.866938" y="200.564"/>
</g>
<g fill="rgb(33.332825%, 33.332825%, 33.332825%)" fill-opacity="1">
<use xlink:href="#glyph-2-1" x="94.132748" y="200.564"/>
</g>
<g fill="rgb(33.332825%, 33.332825%, 33.332825%)" fill-opacity="1">
<use xlink:href="#glyph-2-0" x="98.398559" y="200.564"/>
</g>
<g fill="rgb(33.332825%, 33.332825%, 33.332825%)" fill-opacity="1">
<use xlink:href="#glyph-2-9" x="102.664367" y="200.564"/>
</g>
<g fill="rgb(33.332825%, 33.332825%, 33.332825%)" fill-opacity="1">
<use xlink:href="#glyph-2-0" x="106.930177" y="200.564"/>
</g>
<path fill-rule="nonzero" fill="rgb(100%, 100%, 100%)" fill-opacity="1" d="M 63.875 224.800781 L 87.542969 224.800781 L 87.542969 231.320312 L 63.875 231.320312 Z M 63.875 224.800781 "/>
<g fill="rgb(33.332825%, 33.332825%, 33.332825%)" fill-opacity="1">
<use xlink:href="#glyph-2-0" x="64.723628" y="230.327783"/>
</g>
<g fill="rgb(33.332825%, 33.332825%, 33.332825%)" fill-opacity="1">
<use xlink:href="#glyph-2-1" x="68.989438" y="230.327783"/>
</g>
<g fill="rgb(33.332825%, 33.332825%, 33.332825%)" fill-opacity="1">
<use xlink:href="#glyph-2-0" x="73.255249" y="230.327783"/>
</g>
<g fill="rgb(33.332825%, 33.332825%, 33.332825%)" fill-opacity="1">
<use xlink:href="#glyph-2-5" x="77.521056" y="230.327783"/>
</g>
<g fill="rgb(33.332825%, 33.332825%, 33.332825%)" fill-opacity="1">
<use xlink:href="#glyph-2-4" x="81.786867" y="230.327783"/>
</g>
<path fill-rule="nonzero" fill="rgb(100%, 100%, 100%)" fill-opacity="1" d="M 167.367188 214.878906 L 191.035156 214.878906 L 191.035156 221.398438 L 167.367188 221.398438 Z M 167.367188 214.878906 "/>
<g fill="rgb(33.332825%, 33.332825%, 33.332825%)" fill-opacity="1">
<use xlink:href="#glyph-2-0" x="168.216553" y="220.406522"/>
</g>
<g fill="rgb(33.332825%, 33.332825%, 33.332825%)" fill-opacity="1">
<use xlink:href="#glyph-2-1" x="172.482364" y="220.406522"/>
</g>
<g fill="rgb(33.332825%, 33.332825%, 33.332825%)" fill-opacity="1">
<use xlink:href="#glyph-2-2" x="176.748174" y="220.406522"/>
</g>
<g fill="rgb(33.332825%, 33.332825%, 33.332825%)" fill-opacity="1">
<use xlink:href="#glyph-2-7" x="181.013982" y="220.406522"/>
</g>
<g fill="rgb(33.332825%, 33.332825%, 33.332825%)" fill-opacity="1">
<use xlink:href="#glyph-2-8" x="185.279793" y="220.406522"/>
</g>
<path fill-rule="nonzero" fill="rgb(100%, 100%, 100%)" fill-opacity="1" d="M 169.492188 234.722656 L 193.160156 234.722656 L 193.160156 241.242188 L 169.492188 241.242188 Z M 169.492188 234.722656 "/>
<g fill="rgb(33.332825%, 33.332825%, 33.332825%)" fill-opacity="1">
<use xlink:href="#glyph-2-0" x="170.342538" y="240.249044"/>
</g>
<g fill="rgb(33.332825%, 33.332825%, 33.332825%)" fill-opacity="1">
<use xlink:href="#glyph-2-1" x="174.608348" y="240.249044"/>
</g>
<g fill="rgb(33.332825%, 33.332825%, 33.332825%)" fill-opacity="1">
<use xlink:href="#glyph-2-2" x="178.874159" y="240.249044"/>
</g>
<g fill="rgb(33.332825%, 33.332825%, 33.332825%)" fill-opacity="1">
<use xlink:href="#glyph-2-3" x="183.139966" y="240.249044"/>
</g>
<g fill="rgb(33.332825%, 33.332825%, 33.332825%)" fill-opacity="1">
<use xlink:href="#glyph-2-0" x="187.405777" y="240.249044"/>
</g>
</svg>
